<svg width="19" height="24" viewBox="0 0 19 24" fill="none" xmlns="http://www.w3.org/2000/svg">
<path d="M15.8573 12.7284C15.8899 16.2534 18.9499 17.4266 18.9837 17.4416C18.9578 17.5241 18.4949 19.1134 17.3717 20.7546C16.4009 22.1736 15.3931 23.5873 13.8059 23.6169C12.2462 23.6454 11.7447 22.6918 9.96137 22.6918C8.17862 22.6918 7.62156 23.5873 6.145 23.6454C4.61275 23.7036 3.44593 22.1107 2.467 20.6972C0.466746 17.8052 -1.06194 12.525 0.990621 8.96081C2.01025 7.19081 3.83275 6.07013 5.81068 6.04125C7.31518 6.01256 8.73531 7.05337 9.65499 7.05337C10.5741 7.05337 12.2999 5.80162 14.1141 5.98537C14.8737 6.01706 17.0056 6.29212 18.3745 8.29612C18.2644 8.36456 15.8309 9.78131 15.8573 12.7284ZM12.9261 4.07231C13.7395 3.08775 14.287 1.71675 14.1377 0.353063C12.9651 0.400125 11.5472 1.13437 10.7063 2.11856C9.95256 2.98987 9.29256 4.38487 9.4705 5.72156C10.7776 5.82281 12.1126 5.05744 12.9261 4.07231Z" fill="black"/>
</svg>
