<svg width="21" height="20" viewBox="0 0 21 20" fill="none" xmlns="http://www.w3.org/2000/svg">
<path d="M8.83301 10.834C9.19088 11.3124 9.64747 11.7083 10.1718 11.9947C10.6961 12.2812 11.2759 12.4516 11.8719 12.4942C12.4678 12.5369 13.066 12.4509 13.6258 12.2421C14.1856 12.0333 14.6939 11.7065 15.1163 11.284L17.6163 8.78396C18.3753 7.99811 18.7953 6.9456 18.7858 5.85312C18.7763 4.76063 18.3381 3.71558 17.5656 2.94304C16.7931 2.17051 15.748 1.73231 14.6555 1.72281C13.563 1.71332 12.5105 2.1333 11.7247 2.89229L10.2913 4.31729" stroke="#212121" stroke-linecap="round" stroke-linejoin="round"/>
<path d="M12.1668 9.16702C11.809 8.68858 11.3524 8.2927 10.828 8.00623C10.3037 7.71977 9.72391 7.54942 9.12796 7.50674C8.53201 7.46406 7.93384 7.55004 7.37405 7.75887C6.81425 7.96769 6.3059 8.29446 5.8835 8.71702L3.3835 11.217C2.62451 12.0029 2.20453 13.0554 2.21402 14.1479C2.22352 15.2403 2.66172 16.2854 3.43426 17.0579C4.20679 17.8305 5.25184 18.2687 6.34433 18.2782C7.43681 18.2877 8.48932 17.8677 9.27517 17.1087L10.7002 15.6837" stroke="#212121" stroke-linecap="round" stroke-linejoin="round"/>
</svg>
