<svg width="33" height="56" viewBox="0 0 33 56" fill="none" xmlns="http://www.w3.org/2000/svg">
<path fill-rule="evenodd" clip-rule="evenodd" d="M16.6211 34.5303C11.7861 37.4445 7.0356 38.8525 4.8056 38.2777C-0.78627 36.8363 -1.3004 16.3796 3.0263 8.31497C7.353 0.25031 29.5959 -3.26479 30.717 12.7139C31.1061 18.2596 28.7774 23.2089 25.3369 27.2474L31.5059 56.0006H13.5863L16.6211 34.5303Z" fill="#B28B67"/>
<path fill-rule="evenodd" clip-rule="evenodd" d="M24.7868 8.9598C14.4463 9.03389 7.2515 8.59813 3.13399 7.4665C3.32172 3.96189 6.965 0 16.5737 0C27.2642 0 33 6.23118 33 13.4397C33 20.0256 28.7604 28.0463 25.5335 28.3727C24.6971 28.1897 23.9831 27.182 23.273 25.7935C24.6024 25.147 25.5333 23.6229 25.5333 21.6516C25.5333 19.757 23.8619 17.9184 21.8001 17.9184C21.0478 17.9184 20.3476 18.1631 19.7615 18.5661C18.4068 16.3848 16.7092 14.7557 14.3337 14.933L15.827 10.4531L24.7868 9.70646V8.9598Z" fill="#191847"/>
</svg>
