<svg width="21" height="20" viewBox="0 0 21 20" fill="none" xmlns="http://www.w3.org/2000/svg">
<path d="M14.8398 1.66797H6.50651C4.20532 1.66797 2.33984 3.53345 2.33984 5.83464V14.168C2.33984 16.4692 4.20532 18.3346 6.50651 18.3346H14.8398C17.141 18.3346 19.0065 16.4692 19.0065 14.168V5.83464C19.0065 3.53345 17.141 1.66797 14.8398 1.66797Z" stroke="black" stroke-linecap="round" stroke-linejoin="round"/>
<path d="M14.0066 9.4733C14.1094 10.1668 13.991 10.8751 13.6681 11.4975C13.3451 12.1198 12.8342 12.6245 12.2079 12.9397C11.5817 13.2549 10.872 13.3646 10.1797 13.2532C9.48753 13.1419 8.84806 12.815 8.35229 12.3193C7.85652 11.8235 7.5297 11.184 7.41831 10.4918C7.30693 9.79959 7.41665 9.08988 7.73186 8.46361C8.04708 7.83734 8.55175 7.32642 9.17408 7.0035C9.79641 6.68058 10.5047 6.56212 11.1983 6.66496C11.9057 6.76987 12.5606 7.09952 13.0663 7.60522C13.572 8.11092 13.9017 8.76586 14.0066 9.4733Z" stroke="black" stroke-linecap="round" stroke-linejoin="round"/>
<path d="M15.2559 5.41797H15.2642" stroke="black" stroke-linecap="round" stroke-linejoin="round"/>
</svg>
