<svg width="71" height="56" viewBox="0 0 71 56" fill="none" xmlns="http://www.w3.org/2000/svg">
<path fill-rule="evenodd" clip-rule="evenodd" d="M39.6016 0.000976562L28.1013 29.1085L20.388 53.7165H17.3421L29.1341 0.000976563L39.6016 0.000976562Z" fill="#997659"/>
<path fill-rule="evenodd" clip-rule="evenodd" d="M41.9184 0.000976562C42.0409 10.2296 43.8268 24.0007 44.1122 24.6383C44.3975 25.2759 63.8125 40.8547 63.8125 40.8547L61.7147 43.0996C61.7147 43.0996 38.8068 29.7428 37.7467 27.9613C36.6866 26.1798 33.2354 9.78648 30.4646 0.000976562H41.9184Z" fill="#B28B67"/>
<path fill-rule="evenodd" clip-rule="evenodd" d="M62.882 41.7981C63.5755 40.9715 64.5527 40.1234 65.4428 40.7333C65.4821 40.7603 65.5179 40.7871 65.5496 40.8137C66.0351 41.2211 66.8309 42.1644 66.8309 42.1644C66.3582 42.7277 58.3361 52.2881 58.3361 52.2881C58.3361 52.2881 56.7004 51.588 57.3098 50.6505C57.9192 49.7131 58.3072 49.0804 58.3072 49.0804L59.9411 43.3721C60.0961 42.8305 60.6677 42.5238 61.2048 42.6941L61.4414 42.7691C61.4414 42.7691 62.469 42.2902 62.882 41.7981Z" fill="#E4E4E4"/>
<path fill-rule="evenodd" clip-rule="evenodd" d="M19.5605 52.7401C20.6395 52.7401 21.9173 52.9435 22.0222 54.0174C22.0268 54.0648 22.0293 54.1095 22.0293 54.1509C22.0293 54.7847 21.8181 56.0006 21.8181 56.0006C21.0829 56.0006 8.60264 56.0006 8.60264 56.0006C8.60264 56.0006 8.0875 54.2976 9.19737 54.1618C10.3072 54.026 11.0413 53.9166 11.0413 53.9166L16.4643 51.499C16.9789 51.2696 17.5813 51.5103 17.796 52.0312L17.8906 52.2607C17.8906 52.2607 18.9181 52.7401 19.5605 52.7401Z" fill="#E4E4E4"/>
<path fill-rule="evenodd" clip-rule="evenodd" d="M31.8703 51.1819L17.3889 49.6103L28.1214 0.000976562H41.0918L31.8703 51.1819Z" fill="#69A1AC"/>
<path fill-rule="evenodd" clip-rule="evenodd" d="M60.8164 37.2329L51.3175 48.4763C51.3175 48.4763 36.31 32.0855 33.8186 27.0862C31.3273 22.087 29.3395 0.000976562 29.3395 0.000976562H43.9419C43.9419 0.000976562 45.0277 19.4313 45.4057 20.3355C45.7838 21.2397 60.8164 37.2329 60.8164 37.2329Z" fill="#89C5CC"/>
</svg>
