<svg width="21" height="20" viewBox="0 0 21 20" fill="none" xmlns="http://www.w3.org/2000/svg">
<path d="M14.0059 6.66797C15.3319 6.66797 16.6037 7.19475 17.5414 8.13244C18.4791 9.07012 19.0059 10.3419 19.0059 11.668V17.5013H15.6725V11.668C15.6725 11.2259 15.4969 10.802 15.1844 10.4895C14.8718 10.1769 14.4479 10.0013 14.0059 10.0013C13.5638 10.0013 13.1399 10.1769 12.8273 10.4895C12.5148 10.802 12.3392 11.2259 12.3392 11.668V17.5013H9.00586V11.668C9.00586 10.3419 9.53264 9.07012 10.4703 8.13244C11.408 7.19475 12.6798 6.66797 14.0059 6.66797Z" stroke="black" stroke-linecap="round" stroke-linejoin="round"/>
<path d="M5.67318 7.5H2.33984V17.5H5.67318V7.5Z" stroke="black" stroke-linecap="round" stroke-linejoin="round"/>
<path d="M4.00651 5.0013C4.92699 5.0013 5.67318 4.25511 5.67318 3.33464C5.67318 2.41416 4.92699 1.66797 4.00651 1.66797C3.08604 1.66797 2.33984 2.41416 2.33984 3.33464C2.33984 4.25511 3.08604 5.0013 4.00651 5.0013Z" stroke="black" stroke-linecap="round" stroke-linejoin="round"/>
</svg>
