<svg width="21" height="20" viewBox="0 0 21 20" fill="none" xmlns="http://www.w3.org/2000/svg">
<path d="M18 8.33398C18 14.1673 10.5 19.1673 10.5 19.1673C10.5 19.1673 3 14.1673 3 8.33398C3 6.34486 3.79018 4.43721 5.1967 3.03068C6.60322 1.62416 8.51088 0.833984 10.5 0.833984C12.4891 0.833984 14.3968 1.62416 15.8033 3.03068C17.2098 4.43721 18 6.34486 18 8.33398Z" stroke="#212121" stroke-linecap="round" stroke-linejoin="round"/>
<path d="M10.5 10.834C11.8807 10.834 13 9.7147 13 8.33398C13 6.95327 11.8807 5.83398 10.5 5.83398C9.11929 5.83398 8 6.95327 8 8.33398C8 9.7147 9.11929 10.834 10.5 10.834Z" stroke="#212121" stroke-linecap="round" stroke-linejoin="round"/>
</svg>
