<svg width="342" height="64" viewBox="0 0 342 64" fill="none" xmlns="http://www.w3.org/2000/svg">
<path fill-rule="evenodd" clip-rule="evenodd" d="M3.58346 11.5069C2.94272 10.7548 2.50905 9.83307 2.58152 8.80027C2.79031 5.82447 6.93272 6.47911 7.73851 7.98104C8.54429 9.48296 8.44854 13.2927 7.40714 13.5612C6.99183 13.6682 6.10709 13.406 5.20664 12.8632L5.77184 16.8618H2.43457L3.58346 11.5069Z" fill="#57331F"/>
<path fill-rule="evenodd" clip-rule="evenodd" d="M5.37332 9.12887C5.50106 10.9083 5.83899 11.7981 6.38708 11.7981C7.20927 11.7981 7.90684 11.2761 8.2676 11.2761C8.53058 11.2761 8.47187 11.6052 8.29755 11.8492C8.15373 12.0505 7.45335 12.2446 7.45335 12.5567C7.45335 12.8688 8.00671 12.6273 8.00671 12.8124C8.00671 13.1186 8.10396 13.6943 7.57257 13.6943C7.03477 13.6943 5.49283 13.4983 5.22858 12.7001C5.05804 12.185 4.94778 11.1175 4.89779 9.49781C4.86516 9.49394 4.83196 9.49194 4.79829 9.49194C4.33751 9.49194 3.96398 9.86548 3.96398 10.3263C3.96398 10.5602 4.06024 10.7716 4.21532 10.9231C4.02227 11.1956 3.80591 11.4802 3.558 11.774C2.62662 11.2152 1.93549 9.5794 2.84606 8.00801C3.09774 7.23821 3.66752 6.82703 4.34044 6.63611C4.88554 6.40809 5.45141 6.38238 5.92908 6.51907C6.86545 6.59939 7.70158 6.88491 7.93854 7.05448C7.93854 7.94097 7.76677 8.20399 6.29962 8.18081C5.93912 8.3712 5.66198 8.69904 5.37332 9.12887Z" fill="#191847"/>
<path fill-rule="evenodd" clip-rule="evenodd" d="M2.16699 28.3691L8.99193 45.6432L13.5694 60.247H15.377L8.37899 28.3691L2.16699 28.3691Z" fill="#3D2216"/>
<path fill-rule="evenodd" clip-rule="evenodd" d="M0.792022 28.3691C0.719346 34.4394 -0.340534 42.612 -0.509867 42.9903C-0.622756 43.2426 -4.51986 46.4505 -12.2012 52.6141L-10.9562 53.9463C-1.89296 48.6619 2.84836 45.6672 3.26776 44.9624C3.89686 43.9052 5.94501 34.1764 7.58939 28.3691H0.792022Z" fill="#57331F"/>
<path fill-rule="evenodd" clip-rule="evenodd" d="M12.8291 59.5726C12.6735 59.9878 12.5957 60.2986 12.5957 60.5047C12.5957 60.7555 12.6375 61.1214 12.721 61.6025C13.0119 61.6025 15.6262 61.6025 20.5638 61.6025C20.7677 60.9287 20.65 60.5649 20.2109 60.5112C19.7718 60.4575 19.407 60.409 19.1166 60.3657L15.4713 58.7406C15.4012 58.7093 15.319 58.7408 15.2877 58.811C15.2872 58.8122 15.2866 58.8134 15.2861 58.8146L15.0518 59.383C14.6453 59.5727 14.315 59.6675 14.0609 59.6675C13.8544 59.6675 13.5692 59.5841 13.2054 59.4173C13.0658 59.3533 12.9007 59.4146 12.8367 59.5542C12.8339 59.5602 12.8314 59.5664 12.8291 59.5726Z" fill="#E4E4E4"/>
<path fill-rule="evenodd" clip-rule="evenodd" d="M6.75575 58.7428L15.3498 57.8101L8.9806 28.3691H1.2832L6.75575 58.7428Z" fill="#69A1AC"/>
<path fill-rule="evenodd" clip-rule="evenodd" d="M-10.4229 50.4647L-4.78565 57.1372C1.1519 50.6523 4.6135 46.421 5.59916 44.4431C6.58483 42.4652 7.47089 37.1072 8.25735 28.3691H-0.408525C-0.838129 36.0565 -1.12771 40.0791 -1.27727 40.4368C-1.42684 40.7945 -4.47536 44.1372 -10.4229 50.4647Z" fill="#89C5CC"/>
<path fill-rule="evenodd" clip-rule="evenodd" d="M14.3301 26.6448L18.2692 30.4875C19.4153 30.9764 20.3544 31.5162 21.0865 32.107C21.2511 32.3056 21.4303 32.6861 20.6558 32.5158C19.8812 32.3455 19.0588 32.2013 18.9133 32.4532C18.7677 32.7051 19.1966 33.0911 18.9276 33.4207C18.7482 33.6405 18.145 32.9414 17.118 31.3235L13.0218 28.9086L14.3301 26.6448ZM-4.9319 23.167L-1.88701 23.1784C-4.2061 30.692 -5.43714 34.6259 -5.58015 34.9803C-5.90191 35.7777 -5.22102 36.9922 -4.92984 37.6448C-5.87819 38.0692 -5.77714 36.4976 -6.97346 37.0542C-8.06539 37.5622 -8.89603 38.4827 -10.1576 37.7042C-10.3127 37.6085 -10.4827 37.2482 -10.072 36.9666C-9.0489 36.265 -7.57453 35.0372 -7.37532 34.6331C-7.10366 34.082 -6.28919 30.2599 -4.9319 23.167Z" fill="#57331F"/>
<path fill-rule="evenodd" clip-rule="evenodd" d="M4.34601 14.5288L5.54841 14.3226C7.44257 21.0182 17.1747 25.5822 17.7721 28.0852C17.9912 29.0031 17.3306 29.4672 17.6718 29.7468L16.1089 30.8909C15.8443 30.5821 15.2795 31.1469 14.1 30.7518C12.9206 30.3567 4.34601 22.457 4.34601 14.5288Z" fill="#191847"/>
<path fill-rule="evenodd" clip-rule="evenodd" d="M6.36861 15.4193C6.22998 24.2839 11.3544 26.5451 10.2129 30.1011C9.27037 33.0377 0.248433 36.1945 -1.31276 33.316C-1.94471 32.1508 -2.23143 30.7416 -2.26396 29.2095C-2.66297 30.3865 -2.97854 31.3998 -3.21067 32.2494C-3.61113 33.715 -5.16365 33.948 -5.16365 34.5126L-7.20906 33.948C-7.07033 33.1809 -8.03458 32.8074 -7.77604 31.0938C-6.61762 23.4157 -3.50515 17.85 1.56138 14.3969L1.61379 13.6473C1.63522 13.3409 1.90101 13.1098 2.20745 13.1313L5.95273 13.3932C6.25917 13.4146 6.49021 13.6804 6.46879 13.9868L6.36861 15.4193Z" fill="#2F3676"/>
<g clip-path="url(#clip0_1285_6712)">
<path fill-rule="evenodd" clip-rule="evenodd" d="M75.3698 11.9632C75.0116 11.0015 74.9157 9.94778 75.3533 8.96548C76.6143 6.13518 80.4248 8.2457 80.6778 9.99788C80.9307 11.7501 79.4838 15.4345 78.372 15.3265C77.9286 15.2835 77.1583 14.7132 76.4722 13.8636L75.6034 17.9671L72.3461 16.7816L75.3698 11.9632Z" fill="#B28B67"/>
<path fill-rule="evenodd" clip-rule="evenodd" d="M80.2959 8.7643C80.2375 8.69262 80.1156 8.54188 80.0489 8.47905C80.0332 8.46405 79.9362 8.32288 79.9322 8.32278C79.8208 8.32014 79.4886 8.33915 79.4251 8.43695C79.4183 8.44365 79.4118 8.44988 79.4057 8.45518C79.3381 8.51436 79.2731 8.57661 79.2096 8.6404C79.07 8.78044 78.9385 8.93198 78.8104 9.08324C78.561 9.37782 78.3252 9.68633 78.0979 9.99883C77.8665 10.3169 77.649 10.6448 77.4222 10.9663C77.0957 11.4288 76.7348 11.8645 76.4095 12.3272C76.2017 12.6226 76.0318 12.9362 75.9323 13.2818C75.9311 13.286 75.9297 13.29 75.9286 13.2943C75.9281 13.296 75.9277 13.2978 75.9273 13.2995C75.9124 13.3528 75.8991 13.4068 75.8876 13.4616C75.878 13.5086 75.8683 13.5557 75.859 13.603C76.0776 13.3966 76.2755 13.1536 76.4742 12.9268C76.4936 12.9046 76.5127 12.8821 76.5315 12.8594C76.5841 12.8179 76.6372 12.777 76.6906 12.7364C77.0272 12.4807 77.3643 12.2265 77.6943 11.9615C78.2879 11.4849 78.8827 10.9942 79.5269 10.5926C79.7171 10.474 79.9094 10.3591 80.0985 10.2386C80.2061 10.17 80.3124 10.0991 80.417 10.0257C80.4918 9.97315 80.7949 9.80553 80.7711 9.62991C80.759 9.54006 80.4474 8.95028 80.2959 8.7643Z" fill="#2C2C2C"/>
<path fill-rule="evenodd" clip-rule="evenodd" d="M80.0676 8.50011C80.1313 8.55091 80.1509 8.38707 80.1 8.30837C79.864 7.94372 78.6518 7.40136 77.4868 7.23197C76.7063 7.1185 75.726 7.18625 74.971 7.45728C74.2903 7.70162 73.6775 8.26738 73.2476 8.87302C72.7961 9.50895 72.4986 10.2349 72.3431 10.9989C72.3089 11.1668 72.3048 11.337 72.2765 11.5032C72.2447 11.6903 72.1997 11.8652 72.1947 12.0567C72.1917 12.1739 72.2138 12.298 72.2054 12.414C72.1959 12.5463 72.1347 12.6497 72.0655 12.7626C71.9526 12.9467 71.8302 13.1268 71.6897 13.2907C71.4788 13.5368 71.2515 13.7565 71.0623 14.0227C70.8105 14.3768 69.8904 15.4928 70.095 15.9627L76.4085 18.2606C76.4073 17.7691 76.1159 17.085 76.1882 16.5856C76.2309 16.2914 76.4212 15.6844 76.4231 15.6605C76.6378 14.628 76.5305 14.0585 76.4183 13.8252C76.3062 13.5919 76.0935 13.4553 76.1352 13.3035C76.3078 12.6758 76.7629 12.1798 77.1479 11.6754C77.6067 11.0742 78.015 10.4356 78.4795 9.83918C78.6852 9.57506 79.7369 8.2364 80.0676 8.50011Z" fill="#8991DC"/>
<path fill-rule="evenodd" clip-rule="evenodd" d="M77.5989 8.39571C77.0858 9.06447 76.8879 9.44907 76.5634 10.4999L76.4466 10.4574C76.583 9.4039 77.1109 8.55761 77.4521 8.34228L77.5989 8.39571ZM73.6953 9.1827C73.7471 10.4207 73.718 11.1301 74.6399 12.4521L74.5198 12.4843C73.5436 11.3396 73.4881 10.3778 73.5856 9.19359L73.6953 9.1827ZM75.9169 8.75066C75.5623 10.352 75.3034 11.2463 75.7448 13.2998L75.6207 13.2933C75.07 11.4447 75.3311 10.1946 75.8096 8.7211L75.9169 8.75066ZM73.1053 12.8676L73.2431 12.7862C74.3984 13.6692 73.9462 14.4595 75.2777 15.9112L75.1102 15.9444C73.8882 14.8275 74.0153 13.4323 73.1053 12.8676Z" fill="black" fill-opacity="0.2"/>
<path fill-rule="evenodd" clip-rule="evenodd" d="M67.9102 29.501L78.6422 47.443L86.6882 62.6116H88.4212L74.9401 29.501L67.9102 29.501Z" fill="#997659"/>
<path fill-rule="evenodd" clip-rule="evenodd" d="M85.6281 61.9109C85.4665 62.3422 85.3857 62.6649 85.3857 62.8791C85.3857 63.1395 85.4291 63.5196 85.5159 64.0193C85.818 64.0193 88.5334 64.0193 93.662 64.0193C93.8737 63.3194 93.7515 62.9416 93.2954 62.8858C92.8393 62.83 92.4605 62.7796 92.1588 62.7347L88.3726 61.0467C88.2997 61.0143 88.2143 61.047 88.1818 61.1198C88.1813 61.1211 88.1807 61.1223 88.1802 61.1236L87.9368 61.714C87.5146 61.911 87.1715 62.0095 86.9076 62.0095C86.6931 62.0095 86.3969 61.9228 86.019 61.7496C85.874 61.6831 85.7025 61.7468 85.636 61.8918C85.6332 61.8981 85.6305 61.9044 85.6281 61.9109Z" fill="#E4E4E4"/>
<path fill-rule="evenodd" clip-rule="evenodd" d="M84.453 60.1826L87.7951 59.1716C86.3308 54.7942 84.5362 49.9771 82.4111 44.7202C80.286 39.4633 78.0038 34.3902 75.5643 29.501H66.125C68.8371 35.6856 71.7123 41.3051 74.7506 46.3596C77.7889 51.414 81.023 56.0217 84.453 60.1826Z" fill="#074E4A"/>
<path fill-rule="evenodd" clip-rule="evenodd" d="M67.2048 29.501C66.1919 35.8059 64.2383 43.8613 64.0539 44.1099C63.931 44.2756 59.5061 45.7583 50.7793 48.5581L51.1537 50.0863C61.5604 48.5847 67.0439 47.4198 67.6041 46.5915C68.4443 45.3489 72.64 35.5328 74.265 29.501H67.2048Z" fill="#B28B67"/>
<path fill-rule="evenodd" clip-rule="evenodd" d="M53.8467 47.237L54.5061 49.6983C62.2897 50.381 67.0589 49.8877 68.8137 48.2185C70.5685 46.5493 72.5684 40.3101 74.8135 29.501H65.8125C64.3901 38.3522 63.5948 42.9636 63.4268 43.3352C63.2588 43.7067 60.0654 45.0073 53.8467 47.237Z" fill="#0C5C56"/>
<path fill-rule="evenodd" clip-rule="evenodd" d="M51.2061 47.9212C50.7532 47.837 50.4214 47.8135 50.2105 47.8506C49.954 47.8959 49.5872 48.0046 49.1102 48.1768C49.1627 48.4744 49.6342 51.1485 50.5248 56.1992C51.2507 56.2861 51.6016 56.1002 51.5773 55.6413C51.5531 55.1825 51.5369 54.8006 51.5288 54.4957L52.5336 50.4739C52.553 50.3965 52.5059 50.3181 52.4285 50.2988C52.4272 50.2984 52.4259 50.2981 52.4245 50.2978L51.8009 50.1607C51.5336 49.7791 51.377 49.4583 51.3311 49.1983C51.2939 48.9871 51.3278 48.6804 51.4327 48.2781C51.473 48.1238 51.3806 47.966 51.2262 47.9257C51.2195 47.924 51.2128 47.9225 51.2061 47.9212Z" fill="#E4E4E4"/>
<path fill-rule="evenodd" clip-rule="evenodd" d="M80.4512 29.4988L83.7258 34.184C84.8023 34.9087 85.6569 35.6438 86.2897 36.3894C86.4191 36.6237 86.5277 37.0455 85.7687 36.7182C85.0097 36.391 84.1967 36.0805 83.9982 36.3071C83.7998 36.5336 84.1627 37.0109 83.8227 37.2917C83.5959 37.4789 83.1162 36.6493 82.3835 34.8026L78.6676 31.5349L80.4512 29.4988ZM61.7246 22.8334L64.1088 23.8549C59.9125 28.868 57.674 31.514 57.3932 31.793C56.7614 32.4207 56.9231 33.8522 56.9382 34.5912C55.856 34.6096 56.5896 33.156 55.2158 33.1995C53.962 33.2392 52.7918 33.7773 51.8962 32.5246C51.786 32.3706 51.7688 31.9589 52.2771 31.8578C53.5433 31.6061 55.4558 31.0371 55.8107 30.7337C56.2947 30.3198 58.266 27.6864 61.7246 22.8334Z" fill="#B28B67"/>
<path fill-rule="evenodd" clip-rule="evenodd" d="M74.7749 15.5873L76.4465 15.4952C77.1476 21.2165 78.9178 27.0448 82.9812 32.6558L81.1081 34.5087C77.2577 30.6195 73.4915 27.3906 72.81 22.9202C72.5813 21.4199 74.2967 17.1799 74.7749 15.5873Z" fill="#C5CFD6"/>
<path fill-rule="evenodd" clip-rule="evenodd" d="M65.6045 28.7029C69.8822 30.3451 73.3469 31.2735 75.9984 31.488C76.327 31.5146 76.5156 31.008 76.465 30.6162C75.6756 24.5162 75.4093 19.3068 76.4318 15.4907C75.9613 15.587 75.2268 15.4235 74.2282 15.0002C70.3863 18.1857 67.8957 22.3545 65.6045 28.7029Z" fill="#323337"/>
<path fill-rule="evenodd" clip-rule="evenodd" d="M73.6233 14.485L74.7852 14.7964C74.633 16.4466 69.7618 38.0395 70.5235 45.7341L56.2696 41.9147C58.2941 35.5953 62.7924 28.5578 66.9863 22.7838C64.2719 24.1799 61.4693 27.0268 58.5784 31.3247L56.0906 29.9298C60.3484 21.9802 66.1003 16.8399 73.3463 14.5089C73.3679 14.4818 73.3894 14.4549 73.4107 14.4281L73.5136 14.4556C73.5579 14.4417 73.6022 14.4279 73.6466 14.4141L73.6233 14.485Z" fill="#DDE3E9"/>
</g>
<path fill-rule="evenodd" clip-rule="evenodd" d="M137.426 7.89169C138.374 9.50309 140.082 13.3231 139.605 14.1184L135.56 15.2025C135.557 15.1954 135.555 15.1884 135.553 15.1813C134.009 15.4172 132.502 14.4583 132.088 12.9146L131.324 10.0639C130.88 8.40734 131.863 6.70463 133.52 6.26076L133.799 6.186C135.285 5.78789 136.808 6.53766 137.426 7.89169Z" fill="#191847"/>
<path fill-rule="evenodd" clip-rule="evenodd" d="M133.517 11.9661C132.674 11.3905 131.994 10.5905 131.791 9.54398C131.208 6.52873 135.538 6.0661 136.747 7.343C137.955 8.6199 138.874 12.4341 137.901 12.9809C137.513 13.199 136.555 13.1761 135.507 12.8785L137.14 16.7027L133.792 17.5999L133.517 11.9661Z" fill="#B28B67"/>
<path fill-rule="evenodd" clip-rule="evenodd" d="M134.289 11.2237C134.883 12.8248 135.324 14.717 134.984 15.2854L130.938 16.3694C129.672 12.548 132.254 13.4675 131.274 9.81261C131.375 9.64468 131.468 9.4801 131.565 9.3338L131.532 9.22752C131.852 7.61828 132.55 6.66937 133.627 6.38079C135.243 5.94791 135.952 6.55634 136.556 7.07258C136.527 8.2637 135.311 8.76501 134.376 9.75322C134.215 9.68231 134.03 9.66371 133.847 9.71282C133.423 9.82637 133.171 10.2589 133.283 10.6789C133.396 11.0989 133.831 11.3474 134.254 11.2338C134.266 11.2307 134.278 11.2273 134.289 11.2237Z" fill="#191847"/>
<path fill-rule="evenodd" clip-rule="evenodd" d="M130.136 43.3727C133.601 44.3381 136.59 44.8207 139.104 44.8207C141.617 44.8207 143.952 44.0774 146.109 42.5908C142.718 41.5999 139.926 41.1045 137.732 41.1045C135.538 41.1045 133.006 41.8606 130.136 43.3727Z" fill="#085A55"/>
<path fill-rule="evenodd" clip-rule="evenodd" d="M142.103 46.2124C142.069 46.1624 142.041 46.1079 142.019 46.049C141.556 44.8289 134.137 31.6671 133.398 29.2607H141.75C142.312 31.0903 144.841 42.5718 145.197 44.8625C146.32 48.4758 148.632 60.1782 148.927 60.9889C149.238 61.8417 147.491 62.7302 147.025 61.6817C146.284 60.0134 144.519 55.3973 143.733 52.5787C142.997 49.9363 142.397 47.5591 142.103 46.2124Z" fill="#997659"/>
<path fill-rule="evenodd" clip-rule="evenodd" d="M135.27 47.8193C131.878 48.6732 119.473 50.2168 118.622 50.459C117.746 50.708 116.978 48.9099 118.061 48.5204C119.783 47.9007 124.529 46.4687 127.406 45.8843C129.721 45.4143 131.833 45.0308 133.251 44.8062C133.13 40.8386 132.581 31.3172 132.941 29.2607H140.331C139.986 31.2327 137.068 45.6216 136.526 47.0618C136.354 47.576 135.841 47.8033 135.27 47.8193Z" fill="#B28B67"/>
<path fill-rule="evenodd" clip-rule="evenodd" d="M118.128 48.0286C117.675 47.9444 117.343 47.9209 117.132 47.9581C116.876 48.0033 116.509 48.112 116.032 48.2842C116.085 48.5818 116.556 51.2559 117.447 56.3066C118.173 56.3935 118.523 56.2076 118.499 55.7487C118.475 55.2899 118.459 54.908 118.451 54.6031L119.456 50.5813C119.475 50.5039 119.428 50.4255 119.35 50.4062C119.349 50.4058 119.348 50.4055 119.346 50.4052L118.723 50.2681C118.455 49.8865 118.299 49.5657 118.253 49.3057C118.216 49.0945 118.25 48.7878 118.355 48.3856C118.395 48.2312 118.302 48.0734 118.148 48.0331C118.141 48.0314 118.135 48.0299 118.128 48.0286Z" fill="#E4E4E4"/>
<path fill-rule="evenodd" clip-rule="evenodd" d="M146.495 61.5603C146.334 61.9916 146.253 62.3144 146.253 62.5285C146.253 62.7889 146.296 63.169 146.383 63.6687C146.685 63.6687 149.401 63.6687 154.529 63.6687C154.741 62.9688 154.619 62.591 154.163 62.5352C153.707 62.4794 153.328 62.429 153.026 62.3841L149.24 60.6961C149.167 60.6637 149.081 60.6964 149.049 60.7693C149.048 60.7705 149.048 60.7718 149.047 60.773L148.804 61.3634C148.382 61.5604 148.039 61.6589 147.775 61.6589C147.56 61.6589 147.264 61.5723 146.886 61.399C146.741 61.3325 146.57 61.3962 146.503 61.5412C146.5 61.5475 146.498 61.5538 146.495 61.5603Z" fill="#E4E4E4"/>
<path fill-rule="evenodd" clip-rule="evenodd" d="M132.965 29.2605C136.221 28.3324 139.302 28.3324 142.208 29.2605C143.219 33.8554 145.676 35.6792 146.108 42.7239C141.197 45.1545 135.131 40.9905 130.076 43.3608C128.632 40.0453 130.654 32.0609 132.965 29.2605Z" fill="#106A63"/>
<path fill-rule="evenodd" clip-rule="evenodd" d="M140.669 19.7445L145.131 16.1833C145.781 15.0684 146.457 14.1724 147.16 13.4951C147.385 13.351 147.8 13.2147 147.526 13.9882C147.252 14.7617 146.998 15.5875 147.239 15.7684C147.481 15.9493 147.933 15.5574 148.238 15.8747C148.442 16.0863 147.645 16.6178 145.846 17.4692L142.835 21.3702L140.669 19.7445ZM148.801 20.6512L150.761 19.0834C150.862 17.8776 151.124 17.2338 151.546 17.152C151.844 16.9441 151.535 18.4998 152.129 18.2649C152.723 18.03 154.031 16.6515 154.33 16.8319C154.772 17.0986 154.611 18.1857 154.298 18.7674C153.714 19.8548 153.148 20.2911 151.683 20.9903C150.916 21.3558 150.125 21.9574 149.307 22.795L148.801 20.6512Z" fill="#997659"/>
<path fill-rule="evenodd" clip-rule="evenodd" d="M138.159 19.5693C139.885 19.2463 142.127 18.4762 144.313 16.4883L145.658 18.4621C144.256 20.4374 142.112 22.2352 140.016 22.5448C138.363 22.7888 137.174 20.9578 138.159 19.5693Z" fill="#0D3B39"/>
<path fill-rule="evenodd" clip-rule="evenodd" d="M141.094 22.5976C143.01 22.7295 145.994 21.6494 150.045 19.3573C151.506 21.3749 152.279 22.8606 152.364 23.8145C148.997 26.395 145.971 27.8143 143.363 28.3326C143.719 29.8635 143.789 31.3674 143.391 32.8232C142.573 35.8159 134.476 34.6055 131.995 35.5623C129.468 30.6441 132.207 27.9812 131.623 24.6522C130.983 21.0065 132.935 14.8771 133.368 14.8008L137.314 14.1049C138.023 16.8504 139.66 19.7252 141.094 22.5976Z" fill="#085A55"/>
<path fill-rule="evenodd" clip-rule="evenodd" d="M202.06 12.3938C202.485 11.5014 202.665 10.4989 202.328 9.52004C201.356 6.69968 197.524 8.40415 197.134 10.0634C196.745 11.7227 197.823 15.3779 198.899 15.3677C199.327 15.3636 200.114 14.8813 200.843 14.124L201.332 18.1326L204.556 17.2688L202.06 12.3938Z" fill="#D4A181"/>
<path fill-rule="evenodd" clip-rule="evenodd" d="M200.891 12.4906C201.496 13.1508 202.204 13.5805 202.756 13.4325C203.805 13.1514 204.175 11.5489 203.771 10.0408C203.757 9.98786 203.742 9.93551 203.726 9.88383C205.039 10.348 206.297 11.6199 207.765 11.2265C209.763 10.6912 209.477 6.44915 206.686 7.19703C204.787 7.70564 203.928 8.23258 203.233 8.85744C202.954 8.45255 202.611 8.14123 202.245 7.95783C202.152 7.89676 202.023 7.84933 201.863 7.81598C201.764 7.79195 201.665 7.77746 201.566 7.77312C201.033 7.72482 200.296 7.78738 199.503 7.97034C199.355 8.00451 199.211 8.04159 199.071 8.08112C198.871 7.34188 198.11 6.90372 197.369 7.1021C196.627 7.30087 196.187 8.06334 196.386 8.80514C196.578 9.52253 197.298 9.95786 198.016 9.80596C198.454 9.8224 198.999 9.77473 199.586 9.6588C199.587 9.8845 199.621 10.132 199.693 10.4025C199.757 10.6413 199.851 10.8876 199.969 11.1317C200.054 10.9494 200.195 10.8075 200.365 10.762C200.84 10.6347 201.276 10.9369 201.387 11.352C201.528 11.8787 201.326 12.3412 200.891 12.4906Z" fill="#191847"/>
<path fill-rule="evenodd" clip-rule="evenodd" d="M208.668 29.5615L203.574 47.1137L201.179 60.2922H198.774L201.174 29.5615H208.668Z" fill="#BA8B72"/>
<path fill-rule="evenodd" clip-rule="evenodd" d="M210.957 29.5615C210.602 38.6798 210.742 43.6532 210.821 44.4816C210.901 45.31 211.352 50.8583 214.43 60.5703H211.929C207.853 51.2533 206.431 45.705 205.963 44.4816C205.496 43.2582 204.115 38.2848 202.1 29.5615H210.957Z" fill="#D4A181"/>
<path fill-rule="evenodd" clip-rule="evenodd" d="M208.777 29.5615C207.452 35.6013 205.161 45.2423 201.903 58.4845H198.386C198.126 44.8926 199.231 35.9469 201.145 29.5615H208.777Z" fill="#69A1AC"/>
<path fill-rule="evenodd" clip-rule="evenodd" d="M210.975 29.5615C210.627 38.6798 211.529 47.663 214.323 58.6265H210.571C206.488 49.4486 203.562 40.5096 201.562 29.5615H210.975Z" fill="#89C5CC"/>
<path fill-rule="evenodd" clip-rule="evenodd" d="M214.786 62.3779L214.648 60.1531C213.84 60.3894 212.828 60.2967 211.612 59.875C210.305 60.8012 208.659 61.4336 206.674 61.7723C206.523 61.7981 206.421 61.9418 206.447 62.0932C206.448 62.103 206.451 62.1127 206.453 62.1223L206.644 62.7951H211.612H214.51L214.786 62.3779Z" fill="#191847"/>
<path fill-rule="evenodd" clip-rule="evenodd" d="M201.715 62.3779L201.577 60.1531C200.769 60.3894 199.757 60.2967 198.541 59.875C197.233 60.8012 195.587 61.4336 193.603 61.7723C193.451 61.7981 193.35 61.9418 193.376 62.0932C193.377 62.103 193.379 62.1127 193.382 62.1223L193.573 62.7951H198.541H201.439L201.715 62.3779Z" fill="#191847"/>
<path fill-rule="evenodd" clip-rule="evenodd" d="M198.718 21.7439L193.506 19.9787C192.55 19.1794 191.643 18.5878 190.784 18.2037C190.533 18.1472 190.112 18.1602 190.615 18.7731C191.119 19.3859 191.621 20.0532 191.462 20.2972C191.304 20.5413 190.765 20.3343 190.594 20.7237C190.479 20.9833 191.376 21.2034 193.284 21.384L197.295 23.9373L198.718 21.7439ZM191.661 25.253L189.371 24.4742C188.882 23.4111 188.433 22.912 188.024 22.9768C187.685 22.8864 188.479 24.1988 187.864 24.1813C187.249 24.1638 185.611 23.3421 185.4 23.6048C185.088 23.9934 185.592 24.9287 186.067 25.3545C186.955 26.1503 187.611 26.3603 189.167 26.5124C189.981 26.5919 190.896 26.8775 191.912 27.3692L191.661 25.253Z" fill="#D4A181"/>
<path fill-rule="evenodd" clip-rule="evenodd" d="M200.931 20.7556C199.263 21.0316 196.981 21.0714 194.347 19.9854L193.782 22.2241C195.702 23.5576 198.235 24.4848 200.234 24.0742C201.809 23.7506 202.28 21.6929 200.931 20.7556Z" fill="#0D3B39"/>
<path fill-rule="evenodd" clip-rule="evenodd" d="M199.276 24.4782C197.586 25.2306 194.53 25.2334 190.109 24.4866C189.453 26.8034 189.245 28.4096 189.483 29.305C193.381 30.54 196.586 30.8318 199.116 30.4423C199.3 31.9518 199.732 33.3426 200.573 34.5349C202.301 36.9861 209.225 33.2129 211.786 33.2637C212.448 27.9573 209.091 26.4402 208.521 23.2201C207.896 19.6937 204.107 14.7644 203.691 14.8379L199.891 15.5079C200.156 18.2383 199.625 21.3929 199.276 24.4782Z" fill="#085A55"/>
<path fill-rule="evenodd" clip-rule="evenodd" d="M271.882 10.9737C272.523 10.2216 272.957 9.29987 272.884 8.26707C272.676 5.29127 268.533 5.94591 267.727 7.44783C266.922 8.94976 267.017 12.7595 268.059 13.028C268.474 13.135 269.359 12.8728 270.259 12.33L269.694 16.3286H273.031L271.882 10.9737Z" fill="#B28B67"/>
<path fill-rule="evenodd" clip-rule="evenodd" d="M269.199 7.66537C269.652 7.9187 269.974 8.39339 270.362 9.01604C270.457 8.9789 270.56 8.95851 270.668 8.95851C271.128 8.95851 271.502 9.33204 271.502 9.79282C271.502 10.0267 271.406 10.2382 271.251 10.3897C271.444 10.6622 271.66 10.9468 271.908 11.2405C272.833 10.6855 273.521 9.06772 272.638 7.506C271.878 4.37775 267.571 6.31942 266.742 5.79183C266.561 6.92702 267.146 7.84234 269.199 7.66537Z" fill="#191847"/>
<path fill-rule="evenodd" clip-rule="evenodd" d="M273.166 28.4004L266.341 45.6745L261.764 60.2783H259.956L266.954 28.4004L273.166 28.4004Z" fill="#997659"/>
<path fill-rule="evenodd" clip-rule="evenodd" d="M274.541 28.4004C274.614 34.4706 275.674 42.6432 275.843 43.0216C275.956 43.2739 279.853 46.4818 287.534 52.6453L286.289 53.9776C277.226 48.6931 272.485 45.6985 272.065 44.9936C271.436 43.9364 269.388 34.2077 267.744 28.4004H274.541Z" fill="#B28B67"/>
<path fill-rule="evenodd" clip-rule="evenodd" d="M287.701 52.2008C288.119 52.3486 288.407 52.4887 288.565 52.6212C288.757 52.7824 289.01 53.0496 289.325 53.4228C289.138 53.6457 287.458 55.6483 284.284 59.4308C283.637 59.1538 283.434 58.8299 283.675 58.459C283.916 58.0881 284.113 57.7774 284.267 57.5271L285.365 53.6901C285.386 53.6163 285.463 53.5736 285.537 53.5947C285.538 53.595 285.539 53.5954 285.541 53.5958L286.127 53.7817C286.533 53.5922 286.818 53.4001 286.982 53.2054C287.114 53.0472 287.234 52.7752 287.34 52.3893C287.381 52.2412 287.534 52.1541 287.682 52.1948C287.688 52.1966 287.694 52.1986 287.701 52.2008Z" fill="#E4E4E4"/>
<path fill-rule="evenodd" clip-rule="evenodd" d="M262.504 59.6038C262.66 60.0191 262.737 60.3298 262.737 60.536C262.737 60.7867 262.696 61.1526 262.612 61.6337C262.321 61.6337 259.707 61.6337 254.769 61.6337C254.565 60.9599 254.683 60.5962 255.122 60.5425C255.561 60.4887 255.926 60.4402 256.216 60.3969L259.862 58.7718C259.932 58.7406 260.014 58.7721 260.045 58.8422C260.046 58.8434 260.046 58.8446 260.047 58.8459L260.281 59.4142C260.688 59.6039 261.018 59.6987 261.272 59.6987C261.479 59.6987 261.764 59.6153 262.128 59.4486C262.267 59.3846 262.432 59.4459 262.496 59.5855C262.499 59.5915 262.502 59.5976 262.504 59.6038Z" fill="#E4E4E4"/>
<path fill-rule="evenodd" clip-rule="evenodd" d="M268.577 58.7741L259.983 57.8414L266.352 28.4004H274.05L268.577 58.7741Z" fill="#69A1AC"/>
<path fill-rule="evenodd" clip-rule="evenodd" d="M285.756 50.4959L280.119 57.1685C274.181 50.6836 270.72 46.4522 269.734 44.4743C268.748 42.4964 267.862 37.1385 267.076 28.4004H275.742C276.171 36.0878 276.461 40.1103 276.61 40.468C276.76 40.8258 279.808 44.1684 285.756 50.4959Z" fill="#89C5CC"/>
<path fill-rule="evenodd" clip-rule="evenodd" d="M260.62 26.7196L256.534 30.6805C255.345 31.1845 254.37 31.7409 253.611 32.3498C253.44 32.5545 253.254 32.9467 254.058 32.7712C254.861 32.5957 255.715 32.447 255.866 32.7067C256.017 32.9663 255.572 33.3642 255.851 33.704C256.037 33.9305 256.663 33.21 257.728 31.5423L261.978 29.053L260.62 26.7196ZM280.604 23.1348L277.445 23.1465C279.851 30.8913 281.128 34.9463 281.276 35.3116C281.61 36.1335 280.904 37.3853 280.602 38.058C281.586 38.4955 281.481 36.8755 282.722 37.4492C283.855 37.9729 284.716 38.9217 286.025 38.1193C286.186 38.0206 286.362 37.6492 285.936 37.359C284.875 36.6358 283.345 35.3702 283.139 34.9537C282.857 34.3856 282.012 30.4459 280.604 23.1348Z" fill="#B28B67"/>
<path fill-rule="evenodd" clip-rule="evenodd" d="M270.978 14.2314L269.731 14.0188C267.766 20.9205 257.669 25.6249 257.049 28.2049C256.822 29.1511 257.507 29.6294 257.153 29.9176L258.775 31.0969C259.049 30.7786 259.635 31.3608 260.859 30.9536C262.082 30.5463 270.978 22.4035 270.978 14.2314Z" fill="#CDD422"/>
<path fill-rule="evenodd" clip-rule="evenodd" d="M268.879 15.1436C269.025 24.2852 263.707 26.6162 264.891 30.2824C265.869 33.3093 275.229 36.5633 276.848 33.5962C277.504 32.3951 277.801 30.9426 277.835 29.3633C278.249 30.5766 278.576 31.6211 278.817 32.4968C279.233 34.0075 280.843 34.2476 280.843 34.8296L282.965 34.2476C282.822 33.457 283.822 33.072 283.554 31.3056C282.352 23.3912 279.123 17.6543 273.866 14.0949L273.81 13.3053C273.789 12.999 273.523 12.7682 273.217 12.7894L273.217 12.7889L269.29 13.0613C268.983 13.0826 268.752 13.3483 268.774 13.6547L268.774 13.6552L268.879 15.1436Z" fill="#D6DE21"/>
<path fill-rule="evenodd" clip-rule="evenodd" d="M338.432 10.6582C339.097 9.87698 339.548 8.91962 339.472 7.84688C339.256 4.75601 334.953 5.43597 334.116 6.99597C333.279 8.55597 333.378 12.5131 334.46 12.7919C334.892 12.9031 335.81 12.6307 336.746 12.067L336.159 16.2201H339.625L338.432 10.6582Z" fill="#B28B67"/>
<path fill-rule="evenodd" clip-rule="evenodd" d="M332.581 4.83358C332.653 4.58127 332.846 4.36524 333.106 4.30115C333.169 4.2856 333.234 4.27933 333.299 4.28194C333.322 4.28287 333.329 4.28959 333.34 4.2733C333.348 4.26123 333.348 4.23173 333.351 4.21754C333.362 4.17342 333.375 4.12984 333.391 4.0874C333.445 3.94263 333.536 3.8145 333.647 3.70657C333.853 3.50466 334.132 3.3653 334.421 3.34009C334.58 3.3263 334.737 3.35205 334.887 3.40361C334.965 3.4303 335.04 3.46354 335.113 3.50029C335.135 3.51134 335.207 3.56551 335.229 3.562C335.253 3.55813 335.303 3.49737 335.322 3.48212C335.568 3.29359 335.872 3.21946 336.178 3.22173C336.523 3.22428 336.856 3.24154 337.144 3.45215C337.205 3.49674 337.263 3.54556 337.318 3.59696C337.347 3.62402 337.376 3.65209 337.403 3.68133C337.419 3.69898 337.435 3.71702 337.45 3.73554C337.476 3.76698 337.472 3.77731 337.508 3.75537C337.646 3.67113 337.807 3.63173 337.969 3.65162C338.065 3.66344 338.158 3.69229 338.247 3.73027C338.277 3.7432 338.347 3.79477 338.38 3.79527C338.412 3.79576 338.481 3.74796 338.514 3.73581C338.691 3.67016 338.883 3.65398 339.07 3.68431C339.263 3.71561 339.452 3.79254 339.616 3.89883C339.694 3.94997 339.763 4.00662 339.818 4.08265C339.841 4.11548 339.863 4.15021 339.89 4.18064C339.906 4.19847 339.937 4.21675 339.945 4.23931C339.94 4.2258 340.156 4.14256 340.177 4.13724C340.285 4.10889 340.396 4.11464 340.502 4.14962C340.702 4.2154 340.874 4.36291 341.015 4.51414C341.088 4.59183 341.151 4.67769 341.205 4.76918C341.231 4.813 341.254 4.85807 341.276 4.9041C341.287 4.9264 341.293 4.9543 341.307 4.97438C341.325 5.00027 341.337 5.00076 341.369 5.01205C341.533 5.06936 341.682 5.16636 341.795 5.29743C341.91 5.43004 341.985 5.59335 342.016 5.76532C342.018 5.77545 342.019 5.81743 342.025 5.82291C342.033 5.83046 342.066 5.82712 342.078 5.82858C342.122 5.83364 342.164 5.84116 342.207 5.85116C342.284 5.86958 342.36 5.89669 342.432 5.93214C342.711 6.07035 342.911 6.32945 343.009 6.621C343.111 6.92696 343.109 7.2775 342.987 7.57776C342.967 7.62625 342.943 7.67333 342.916 7.71786C342.899 7.7452 342.893 7.74526 342.904 7.77394C342.917 7.80585 342.939 7.83686 342.954 7.86804C343.001 7.96978 343.035 8.07769 343.056 8.18791C343.09 8.3687 343.107 8.55869 343.073 8.74086C343.057 8.82545 343.03 8.90814 342.988 8.98348C342.966 9.02189 342.941 9.05833 342.913 9.09203C342.898 9.10953 342.883 9.12624 342.866 9.14225C342.857 9.15139 342.845 9.1594 342.837 9.16961C342.817 9.19452 342.813 9.17404 342.823 9.21062C342.837 9.26175 342.869 9.3122 342.888 9.36196C342.908 9.41324 342.927 9.46521 342.943 9.5177C342.977 9.62399 343.005 9.73221 343.023 9.84228C343.057 10.0536 343.051 10.2788 342.951 10.4728C342.908 10.5557 342.847 10.6285 342.772 10.6851C342.736 10.7128 342.696 10.7367 342.655 10.7563C342.634 10.7664 342.607 10.7707 342.597 10.7913C342.586 10.8134 342.602 10.8572 342.606 10.882C342.636 11.0969 342.652 11.3226 342.588 11.5332C342.529 11.7272 342.399 11.8985 342.231 12.012C341.905 12.232 341.465 12.2196 341.122 12.0434C341.033 11.9975 340.949 11.9405 340.874 11.8733C340.684 12.129 340.293 12.1209 340.016 12.048C339.67 11.9573 339.392 11.7167 339.233 11.4007C339.014 11.6669 338.555 11.5806 338.403 11.2918C338.366 11.2211 338.344 11.1432 338.333 11.0644C338.328 11.023 338.331 10.9812 338.327 10.94C338.322 10.8876 338.287 10.8367 338.266 10.786C338.227 10.6874 338.203 10.5855 338.202 10.4791C338.201 10.4235 338.208 10.3694 338.214 10.3143C338.218 10.2647 338.205 10.2185 338.197 10.1695C338.286 10.1841 338.394 10.1602 338.477 10.1345C338.559 10.1092 338.636 10.0428 338.694 9.98204C338.828 9.84106 338.91 9.65624 338.967 9.4723C339.09 9.06858 339.039 8.58421 338.633 8.36264C338.444 8.25942 337.877 8.25976 337.652 8.31078C337.415 8.36441 337.147 8.88714 337.133 8.93627C337.125 8.96668 337.129 9.00432 337.101 9.02458C337.04 9.06913 336.939 8.99182 336.893 8.95366C336.815 8.8878 336.76 8.80018 336.711 8.71137C336.606 8.51787 336.521 8.31037 336.461 8.09854C336.415 7.93523 336.386 7.76682 336.325 7.60767C336.265 7.44931 336.171 7.30777 336.023 7.21806C335.863 7.12047 335.68 7.06907 335.504 7.00774C335.33 6.94696 335.158 6.87267 335.023 6.7437C334.994 6.71534 334.965 6.68521 334.941 6.65182C334.922 6.62546 334.903 6.575 334.875 6.55829C334.83 6.53229 334.765 6.5999 334.726 6.62445C334.535 6.74557 334.376 6.9145 334.248 7.09904C334.12 7.28258 334.016 7.45918 333.93 7.66412C333.867 7.81611 333.828 8.01078 333.717 8.13534C333.667 8.19096 333.299 8.22461 333.18 8.17605C333.06 8.12749 332.927 8.0014 332.887 7.92238C332.846 7.84151 332.836 7.75266 332.853 7.66412C332.864 7.61203 332.885 7.56337 332.896 7.51221C332.906 7.46923 332.915 7.42861 332.936 7.38923C332.975 7.31462 333.043 7.261 333.125 7.23857C333.04 7.1602 332.969 7.06644 332.92 6.96163C332.87 6.85274 332.827 6.72032 332.815 6.60081C332.805 6.50374 332.82 6.40317 332.873 6.31975C332.929 6.23225 333.028 6.17516 333.113 6.12057C332.983 6.01845 332.871 5.89427 332.779 5.75677C332.601 5.48939 332.49 5.15235 332.581 4.83358Z" fill="#191847"/>
<path fill-rule="evenodd" clip-rule="evenodd" d="M340.779 28.2109L333.835 46.5863L328.967 60.1299H326.192L332.883 28.2109L340.779 28.2109Z" fill="#085A55"/>
<path fill-rule="evenodd" clip-rule="evenodd" d="M342.496 28.2109C342.571 34.5159 342.517 43.0045 342.693 43.3975C342.81 43.6596 346.457 46.6449 353.634 52.3534L352.203 54.786C343.683 49.2913 339.205 46.1779 338.769 45.4458C338.116 44.3477 334.833 34.2428 333.125 28.2109H342.496Z" fill="#106A63"/>
<path fill-rule="evenodd" clip-rule="evenodd" d="M329.225 62.7293L329.08 59.6963H326.047C324.609 60.7073 322.731 61.5257 320.414 62.1516V62.7293H325.903L327.78 62.4405V62.7293H329.225Z" fill="#191847"/>
<path fill-rule="evenodd" clip-rule="evenodd" d="M328.359 22.4771L322.656 21.6992C321.515 21.0647 320.466 20.6352 319.508 20.4106C319.238 20.4027 318.809 20.5007 319.448 21.0334C320.087 21.5661 320.735 22.1553 320.622 22.4396C320.508 22.7239 319.914 22.6181 319.815 23.0554C319.75 23.3469 320.714 23.3942 322.708 23.1975L327.335 25.0319L328.359 22.4771ZM346.272 23.797L343.11 23.8089C346.577 31.613 348.386 35.6991 348.534 36.0672C348.868 36.8954 348.161 38.1568 347.859 38.8347C348.844 39.2754 348.739 37.6431 349.981 38.2212C351.116 38.7488 351.978 39.7049 353.289 38.8964C353.45 38.797 353.626 38.4227 353.2 38.1302C352.137 37.4015 350.606 36.1262 350.399 35.7065C350.117 35.134 348.741 31.1642 346.272 23.797Z" fill="#997659"/>
<path fill-rule="evenodd" clip-rule="evenodd" d="M337.609 13.7661L335.133 13.9311C334.523 19.4485 331.201 22.9335 323.764 21.7537L322.776 28.8589C329.727 29.7572 335.823 26.9742 337.073 19.4391C337.396 17.4885 337.652 15.4585 337.609 13.7661Z" fill="#AFB9C5"/>
<path fill-rule="evenodd" clip-rule="evenodd" d="M338.831 13.0462L335.079 13.9055C335.079 20.3585 333.023 24.4756 331.969 29.2201H342.102C342.245 30.8595 342.332 32.5445 342.378 34.2751H349.965C348.246 25.1275 344.617 18.0505 339.079 13.0439H338.833L338.831 13.0462Z" fill="#C5CFD6"/>
<path fill-rule="evenodd" clip-rule="evenodd" d="M340.503 20.0137C340.764 24.0348 340.61 27.1035 340.042 29.2197H342.102C341.819 25.9721 341.32 22.9034 340.503 20.0137Z" fill="black" fill-opacity="0.1"/>
<defs>
<clipPath id="clip0_1285_6712">
<rect width="50.6667" height="64" fill="white" transform="translate(45.667)"/>
</clipPath>
</defs>
</svg>
