<svg width="342" height="18" viewBox="0 0 342 18" fill="none" xmlns="http://www.w3.org/2000/svg">
<line y1="8.5" x2="81.5" y2="8.5" stroke="#D9D9D9"/>
<path d="M106.504 9.458C106.476 7.456 108.002 5.678 110.144 5.72C112.286 5.678 113.812 7.456 113.784 9.458C113.812 11.46 112.286 13.238 110.144 13.196C108.002 13.238 106.476 11.46 106.504 9.458ZM112.552 9.458C112.552 8.688 112.328 8.044 111.88 7.554C111.446 7.064 110.858 6.812 110.144 6.812C109.43 6.812 108.842 7.064 108.394 7.554C107.96 8.044 107.736 8.688 107.736 9.458C107.736 10.228 107.96 10.872 108.394 11.362C108.842 11.852 109.43 12.104 110.144 12.104C110.858 12.104 111.446 11.852 111.88 11.362C112.328 10.872 112.552 10.228 112.552 9.458ZM119.495 5.902V6.938C119.285 6.91 119.089 6.896 118.879 6.896C117.493 6.896 116.695 7.708 116.695 9.374V13H115.519V5.916H116.695V7.246C117.017 6.336 117.801 5.804 118.851 5.804C119.089 5.804 119.313 5.832 119.495 5.902ZM123.174 11.656L124.028 11.026C124.532 11.754 125.358 12.132 126.324 12.132C127.332 12.132 127.948 11.712 127.948 11.054C127.948 10.55 127.598 10.256 126.702 10.046L125.582 9.794C124.126 9.458 123.426 8.814 123.426 7.82C123.426 6.574 124.49 5.72 126.212 5.72C127.444 5.72 128.438 6.154 129.012 6.924L128.2 7.624C127.738 7.078 127.024 6.784 126.142 6.784C125.134 6.784 124.602 7.162 124.602 7.792C124.602 8.254 124.924 8.52 125.876 8.744L127.122 9.024C128.522 9.346 129.124 9.976 129.124 10.97C129.124 12.314 128.074 13.196 126.338 13.196C124.896 13.196 123.734 12.608 123.174 11.656ZM130.534 3.62C130.534 3.158 130.884 2.808 131.346 2.808C131.808 2.808 132.158 3.158 132.158 3.62C132.158 4.082 131.808 4.432 131.346 4.432C130.884 4.432 130.534 4.082 130.534 3.62ZM130.758 13V5.916H131.934V13H130.758ZM139.67 5.916H140.846V12.188C140.846 14.652 139.516 15.996 137.164 15.996C135.834 15.996 134.672 15.562 133.944 14.82L134.616 13.952C135.274 14.554 136.17 14.904 137.164 14.904C138.788 14.904 139.67 13.98 139.67 12.188V11.544C139.264 12.44 138.27 13 137.052 13C135.106 13 133.678 11.502 133.678 9.36C133.678 7.218 135.106 5.72 137.052 5.72C138.242 5.72 139.264 6.294 139.67 7.204V5.916ZM139.726 9.36C139.726 8.618 139.502 8.002 139.054 7.526C138.62 7.05 138.032 6.812 137.318 6.812C136.604 6.812 136.016 7.05 135.568 7.526C135.134 8.002 134.91 8.618 134.91 9.36C134.91 10.102 135.134 10.718 135.568 11.194C136.016 11.67 136.604 11.908 137.318 11.908C138.032 11.908 138.62 11.67 139.054 11.194C139.502 10.718 139.726 10.102 139.726 9.36ZM149.25 8.464V13H148.074V8.744C148.074 7.4 147.57 6.812 146.45 6.812C145.176 6.812 144.266 7.596 144.266 8.786V13H143.09V5.916H144.266V7.12C144.658 6.224 145.568 5.72 146.73 5.72C148.34 5.72 149.25 6.714 149.25 8.464ZM154.173 3.62C154.173 3.158 154.523 2.808 154.985 2.808C155.447 2.808 155.797 3.158 155.797 3.62C155.797 4.082 155.447 4.432 154.985 4.432C154.523 4.432 154.173 4.082 154.173 3.62ZM154.397 13V5.916H155.573V13H154.397ZM163.982 8.464V13H162.806V8.744C162.806 7.4 162.302 6.812 161.182 6.812C159.908 6.812 158.998 7.596 158.998 8.786V13H157.822V5.916H158.998V7.12C159.39 6.224 160.3 5.72 161.462 5.72C163.072 5.72 163.982 6.714 163.982 8.464ZM177.869 5.916H179.059L176.735 13H175.447L173.543 7.26L171.639 13H170.351L168.027 5.916H169.217L171.023 11.558L172.899 5.916H174.187L176.063 11.558L177.869 5.916ZM180.137 3.62C180.137 3.158 180.487 2.808 180.949 2.808C181.411 2.808 181.761 3.158 181.761 3.62C181.761 4.082 181.411 4.432 180.949 4.432C180.487 4.432 180.137 4.082 180.137 3.62ZM180.361 13V5.916H181.537V13H180.361ZM184.304 11.18V6.924H182.89V5.916H184.304V3.816H185.48V5.916H187.706V6.924H185.48V11.096C185.48 11.782 185.83 12.076 186.628 12.076C186.95 12.076 187.328 12.034 187.734 11.95V12.93C187.328 13.056 186.908 13.112 186.46 13.112C185.06 13.112 184.304 12.454 184.304 11.18ZM195.408 8.464V13H194.232V8.744C194.232 7.4 193.728 6.812 192.608 6.812C191.334 6.812 190.424 7.596 190.424 8.786V13H189.248V2.752H190.424V7.12C190.816 6.224 191.726 5.72 192.888 5.72C194.498 5.72 195.408 6.714 195.408 8.464ZM206.912 9.822H201.242C201.368 11.236 202.32 12.104 203.706 12.104C204.616 12.104 205.372 11.74 205.96 10.998L206.758 11.67C206.072 12.636 204.98 13.196 203.678 13.196C201.536 13.196 200.038 11.67 200.038 9.472C200.038 7.302 201.494 5.72 203.58 5.72C205.554 5.72 206.954 7.134 206.954 9.192C206.954 9.402 206.94 9.612 206.912 9.822ZM201.27 8.87H205.75C205.638 7.568 204.812 6.812 203.58 6.812C202.334 6.812 201.48 7.596 201.27 8.87ZM219.296 8.436V13H218.12V8.716C218.12 7.386 217.672 6.812 216.622 6.812C215.404 6.812 214.564 7.596 214.564 8.786V13H213.388V8.716C213.388 7.386 212.94 6.812 211.89 6.812C210.672 6.812 209.832 7.596 209.832 8.786V13H208.656V5.916H209.832V7.106C210.224 6.224 211.092 5.72 212.17 5.72C213.248 5.72 214.032 6.238 214.368 7.19C214.746 6.294 215.684 5.72 216.874 5.72C218.442 5.72 219.296 6.7 219.296 8.436ZM226.962 5.916H228.138V13H226.962V11.698C226.556 12.608 225.534 13.196 224.344 13.196C222.398 13.196 220.97 11.642 220.97 9.458C220.97 7.274 222.398 5.72 224.344 5.72C225.534 5.72 226.556 6.308 226.962 7.218V5.916ZM227.018 9.458C227.018 8.688 226.794 8.044 226.346 7.554C225.912 7.064 225.324 6.812 224.61 6.812C223.896 6.812 223.308 7.064 222.86 7.554C222.426 8.044 222.202 8.688 222.202 9.458C222.202 10.228 222.426 10.872 222.86 11.362C223.308 11.852 223.896 12.104 224.61 12.104C225.324 12.104 225.912 11.852 226.346 11.362C226.794 10.872 227.018 10.228 227.018 9.458ZM230.172 3.62C230.172 3.158 230.522 2.808 230.984 2.808C231.446 2.808 231.796 3.158 231.796 3.62C231.796 4.082 231.446 4.432 230.984 4.432C230.522 4.432 230.172 4.082 230.172 3.62ZM230.396 13V5.916H231.572V13H230.396ZM233.82 13V2.752H234.996V13H233.82Z" fill="#828282"/>
<line x1="260.5" y1="8.5" x2="342" y2="8.5" stroke="#D9D9D9"/>
</svg>
