<svg width="342" height="18" viewBox="0 0 342 18" fill="none" xmlns="http://www.w3.org/2000/svg">
<line y1="8.5" x2="129.5" y2="8.5" stroke="#D9D9D9"/>
<path d="M162.682 9.446C162.646 6.872 164.608 4.586 167.362 4.64C170.116 4.586 172.078 6.872 172.042 9.446C172.078 12.02 170.116 14.306 167.362 14.252C164.608 14.306 162.646 12.02 162.682 9.446ZM170.458 9.446C170.458 8.456 170.17 7.628 169.594 6.998C169.036 6.368 168.28 6.044 167.362 6.044C166.444 6.044 165.688 6.368 165.112 6.998C164.554 7.628 164.266 8.456 164.266 9.446C164.266 10.436 164.554 11.264 165.112 11.894C165.688 12.524 166.444 12.848 167.362 12.848C168.28 12.848 169.036 12.524 169.594 11.894C170.17 11.264 170.458 10.436 170.458 9.446ZM179.745 4.874V6.206C179.475 6.17 179.223 6.152 178.953 6.152C177.171 6.152 176.145 7.196 176.145 9.338V14H174.633V4.892H176.145V6.602C176.559 5.432 177.567 4.748 178.917 4.748C179.223 4.748 179.511 4.784 179.745 4.874Z" fill="black"/>
<line x1="212.5" y1="8.5" x2="342" y2="8.5" stroke="#D9D9D9"/>
</svg>
