<svg width="390" height="182" viewBox="0 0 390 182" fill="none" xmlns="http://www.w3.org/2000/svg">
<rect width="1224" height="181.053" transform="translate(-417)" fill="white"/>
<path fill-rule="evenodd" clip-rule="evenodd" d="M-11.5866 134.061C-11.8323 134.717 -11.9551 135.208 -11.9551 135.533C-11.9551 135.929 -11.8891 136.507 -11.7572 137.266C-11.2979 137.266 -7.1701 137.266 0.626206 137.266C0.948008 136.202 0.762245 135.628 0.0689201 135.543C-0.624405 135.458 -1.20036 135.382 -1.65895 135.314L-7.41464 132.748C-7.52539 132.698 -7.6552 132.748 -7.70457 132.859C-7.70542 132.861 -7.70623 132.863 -7.70703 132.864L-8.077 133.762C-8.71883 134.061 -9.24039 134.211 -9.64168 134.211C-9.96771 134.211 -10.418 134.079 -10.9924 133.816C-11.2129 133.715 -11.4735 133.812 -11.5746 134.032C-11.579 134.042 -11.583 134.051 -11.5866 134.061Z" fill="#E4E4E4"/>
<path fill-rule="evenodd" clip-rule="evenodd" d="M-9.21628 82.0694L-2.99669 88.1368C-1.18702 88.9088 0.29575 89.7611 1.45161 90.6939C1.71155 91.0075 1.99453 91.6082 0.771545 91.3394C-0.451443 91.0706 -1.74993 90.8428 -1.97979 91.2405C-2.20965 91.6382 -1.53235 92.2477 -1.95716 92.7682C-2.24036 93.1152 -3.1928 92.0114 -4.81448 89.4569L-11.282 85.6438L-9.21628 82.0694ZM-39.63 76.5781L-34.8223 76.5962C-38.484 88.4597 -40.4278 94.6712 -40.6536 95.2308C-41.1616 96.4898 -40.0865 98.4074 -39.6268 99.4378C-41.1242 100.108 -40.9646 97.6264 -42.8535 98.5052C-44.5777 99.3074 -45.8892 100.761 -47.8812 99.5316C-48.1261 99.3805 -48.3944 98.8116 -47.746 98.367C-46.1306 97.2593 -43.8026 95.3206 -43.4881 94.6825C-43.0591 93.8123 -41.7731 87.7775 -39.63 76.5781Z" fill="#57331F"/>
<g clip-path="url(#clip0_1285_5511)">
<path fill-rule="evenodd" clip-rule="evenodd" d="M69.8988 58.89C69.3332 57.3715 69.1819 55.7078 69.8729 54.1568C71.8638 49.6879 77.8805 53.0203 78.2798 55.7869C78.6792 58.5535 76.3947 64.371 74.6392 64.2006C73.9391 64.1326 72.7227 63.2322 71.6395 61.8907L70.2677 68.3699L65.1246 66.498L69.8988 58.89Z" fill="#B28B67"/>
<path fill-rule="evenodd" clip-rule="evenodd" d="M77.6768 53.8387C77.5846 53.7255 77.3921 53.4875 77.2868 53.3883C77.262 53.3646 77.1088 53.1417 77.1026 53.1416C76.9267 53.1374 76.4021 53.1674 76.3018 53.3219C76.2911 53.3324 76.2808 53.3423 76.2713 53.3506C76.1645 53.4441 76.0619 53.5424 75.9615 53.6431C75.7413 53.8642 75.5335 54.1035 75.3313 54.3423C74.9375 54.8075 74.5652 55.2946 74.2063 55.788C73.8409 56.2903 73.4975 56.808 73.1393 57.3155C72.6239 58.0458 72.0541 58.7338 71.5403 59.4643C71.2123 59.9308 70.944 60.4259 70.7869 60.9717C70.785 60.9782 70.7829 60.9846 70.7811 60.9913C70.7803 60.9941 70.7797 60.9968 70.779 60.9996C70.7554 61.0837 70.7345 61.169 70.7164 61.2556C70.7011 61.3297 70.6858 61.4041 70.6712 61.4788C71.0163 61.1529 71.3288 60.7692 71.6425 60.4112C71.6732 60.3761 71.7033 60.3405 71.7331 60.3046C71.8161 60.2391 71.8999 60.1745 71.9842 60.1105C72.5157 59.7067 73.0479 59.3054 73.569 58.887C74.5062 58.1345 75.4454 57.3596 76.4626 56.7255C76.7629 56.5383 77.0666 56.3568 77.3652 56.1665C77.5351 56.0582 77.7029 55.9463 77.8681 55.8304C77.9861 55.7474 78.4647 55.4828 78.4272 55.2055C78.408 55.0636 77.916 54.1324 77.6768 53.8387Z" fill="#2C2C2C"/>
<path fill-rule="evenodd" clip-rule="evenodd" d="M77.3165 53.421C77.4171 53.5012 77.4481 53.2425 77.3677 53.1183C76.9951 52.5425 75.0811 51.6862 73.2416 51.4187C72.0093 51.2395 70.4613 51.3465 69.2692 51.7744C68.1945 52.1603 67.2269 53.0535 66.5481 54.0098C65.8353 55.0139 65.3655 56.1602 65.1199 57.3665C65.066 57.6315 65.0594 57.9004 65.0149 58.1627C64.9646 58.4582 64.8935 58.7343 64.8857 59.0367C64.8809 59.2218 64.9159 59.4177 64.9026 59.6008C64.8875 59.8097 64.791 59.973 64.6816 60.1513C64.5034 60.4419 64.3101 60.7263 64.0883 60.9851C63.7552 61.3736 63.3964 61.7205 63.0976 62.1408C62.7001 62.7001 61.2473 64.462 61.5703 65.204L71.539 68.8323C71.5372 68.0562 71.077 66.9761 71.1912 66.1876C71.2586 65.7231 71.559 64.7646 71.5621 64.7269C71.9011 63.0966 71.7316 62.1974 71.5546 61.8291C71.3775 61.4607 71.0416 61.245 71.1075 61.0053C71.38 60.0142 72.0987 59.231 72.7065 58.4346C73.4309 57.4854 74.0755 56.4771 74.809 55.5353C75.1337 55.1183 76.7945 53.0046 77.3165 53.421Z" fill="#8991DC"/>
<path fill-rule="evenodd" clip-rule="evenodd" d="M73.4181 53.2564C72.608 54.3123 72.2954 54.9196 71.7831 56.5787L71.5987 56.5116C71.814 54.8483 72.6476 53.512 73.1863 53.172L73.4181 53.2564ZM67.2545 54.499C67.3364 56.4538 67.2904 57.5738 68.746 59.6613L68.5564 59.7121C67.0151 57.9047 66.9274 56.386 67.0814 54.5162L67.2545 54.499ZM70.7624 53.8168C70.2024 56.3453 69.7937 57.7573 70.4906 60.9997L70.2947 60.9894C69.4252 58.0706 69.8374 56.0967 70.5929 53.7702L70.7624 53.8168ZM66.3229 60.3173L66.5406 60.1888C68.3646 61.583 67.6507 62.8309 69.7531 65.1229L69.4886 65.1754C67.5591 63.4119 67.7598 61.2089 66.3229 60.3173Z" fill="black" fill-opacity="0.2"/>
<path fill-rule="evenodd" clip-rule="evenodd" d="M58.1201 86.5801L75.0655 114.91L87.7696 138.86H90.506L69.22 86.5801L58.1201 86.5801Z" fill="#997659"/>
<path fill-rule="evenodd" clip-rule="evenodd" d="M86.0966 137.754C85.8414 138.435 85.7139 138.945 85.7139 139.283C85.7139 139.694 85.7824 140.294 85.9194 141.083C86.3965 141.083 90.6839 141.083 98.7817 141.083C99.1159 139.978 98.923 139.382 98.2028 139.294C97.4827 139.206 96.8845 139.126 96.4081 139.055L90.4299 136.39C90.3148 136.339 90.18 136.39 90.1287 136.505C90.1279 136.507 90.127 136.509 90.1262 136.511L89.7419 137.443C89.0753 137.755 88.5335 137.91 88.1167 137.91C87.7781 137.91 87.3104 137.773 86.7137 137.5C86.4848 137.395 86.214 137.495 86.1091 137.724C86.1045 137.734 86.1004 137.744 86.0966 137.754Z" fill="#E4E4E4"/>
<path fill-rule="evenodd" clip-rule="evenodd" d="M84.2417 135.025L89.5187 133.428C87.2067 126.517 84.373 118.911 81.0176 110.61C77.6623 102.31 74.0587 94.2999 70.207 86.5801H55.3027C59.585 96.3453 64.1248 105.218 68.9221 113.199C73.7195 121.18 78.826 128.455 84.2417 135.025Z" fill="#074E4A"/>
<path fill-rule="evenodd" clip-rule="evenodd" d="M57.0063 86.5801C55.407 96.5353 52.3224 109.254 52.0313 109.647C51.8372 109.908 44.8505 112.25 31.0713 116.67L31.6624 119.083C48.0941 116.712 56.7522 114.873 57.6367 113.565C58.9635 111.603 65.5882 96.104 68.1541 86.5801H57.0063Z" fill="#B28B67"/>
<path fill-rule="evenodd" clip-rule="evenodd" d="M35.915 114.584L36.9562 118.471C49.2461 119.549 56.7765 118.77 59.5472 116.134C62.3179 113.498 65.4756 103.647 69.0205 86.5801H54.8084C52.5625 100.556 51.3069 107.837 51.0416 108.424C50.7762 109.01 45.7341 111.064 35.915 114.584Z" fill="#0C5C56"/>
<path fill-rule="evenodd" clip-rule="evenodd" d="M31.7462 115.665C31.0312 115.532 30.5072 115.495 30.1742 115.554C29.7692 115.625 29.1902 115.797 28.437 116.069C28.5198 116.539 29.2643 120.761 30.6705 128.736C31.8167 128.873 32.3707 128.579 32.3325 127.855C32.2942 127.13 32.2686 126.527 32.2558 126.046L33.8424 119.696C33.8729 119.573 33.7986 119.45 33.6764 119.419C33.6743 119.419 33.6722 119.418 33.6701 119.418L32.6854 119.201C32.2633 118.599 32.0161 118.092 31.9437 117.682C31.8849 117.348 31.9384 116.864 32.1041 116.229C32.1677 115.985 32.0217 115.736 31.778 115.672C31.7675 115.669 31.7569 115.667 31.7462 115.665Z" fill="#E4E4E4"/>
<path fill-rule="evenodd" clip-rule="evenodd" d="M77.9216 86.5767L83.092 93.9743C84.7917 95.1186 86.1412 96.2793 87.1403 97.4564C87.3446 97.8264 87.516 98.4925 86.3176 97.9757C85.1193 97.4589 83.8355 96.9688 83.5222 97.3265C83.2088 97.6842 83.7819 98.4378 83.245 98.8812C82.887 99.1768 82.1296 97.8668 80.9727 94.9511L75.1054 89.7915L77.9216 86.5767ZM48.3534 76.0522L52.1179 77.6652C45.4922 85.5806 41.9576 89.7585 41.5142 90.199C40.5166 91.1901 40.7719 93.4504 40.7958 94.6172C39.0871 94.6463 40.2454 92.3511 38.0763 92.4198C36.0965 92.4825 34.2489 93.3321 32.8347 91.3542C32.6608 91.111 32.6337 90.4609 33.4362 90.3014C35.4354 89.9039 38.4552 89.0055 39.0156 88.5264C39.7798 87.873 42.8924 83.7149 48.3534 76.0522Z" fill="#B28B67"/>
<path fill-rule="evenodd" clip-rule="evenodd" d="M68.959 64.6105L71.5984 64.4651C72.7053 73.4987 75.5004 82.7012 81.9163 91.5608L78.9588 94.4864C72.8792 88.3456 66.9326 83.2473 65.8566 76.1888C65.4954 73.8197 68.2039 67.1251 68.959 64.6105Z" fill="#C5CFD6"/>
<path fill-rule="evenodd" clip-rule="evenodd" d="M54.4783 85.3199C61.2327 87.9128 66.7032 89.3786 70.8899 89.7174C71.4086 89.7593 71.7065 88.9594 71.6265 88.3409C70.3801 78.7093 69.9597 70.4839 71.5742 64.4586C70.8312 64.6105 69.6714 64.3523 68.0948 63.6841C62.0286 68.7138 58.096 75.296 54.4783 85.3199Z" fill="#323337"/>
<path fill-rule="evenodd" clip-rule="evenodd" d="M67.1402 62.8706L68.9749 63.3622C68.7346 65.9678 61.0432 100.062 62.2459 112.211L39.7396 106.181C42.9362 96.2026 50.0389 85.0908 56.6607 75.974C52.3748 78.1783 47.9497 82.6735 43.3852 89.4596L39.457 87.2571C46.1798 74.7051 55.2618 66.5888 66.7028 62.9083C66.7369 62.8656 66.7709 62.823 66.8046 62.7807L66.967 62.8242C67.0369 62.8022 67.107 62.7804 67.1771 62.7587L67.1402 62.8706Z" fill="#DDE3E9"/>
</g>
<path fill-rule="evenodd" clip-rule="evenodd" d="M150.62 52.4614C152.118 55.0058 154.813 61.0374 154.061 62.2931L147.673 64.0048C147.67 63.9936 147.666 63.9825 147.662 63.9714C145.224 64.3438 142.845 62.8298 142.192 60.3923L140.986 55.8912C140.285 53.2756 141.837 50.5871 144.453 49.8863L144.893 49.7682C147.239 49.1396 149.644 50.3235 150.62 52.4614Z" fill="#191847"/>
<path fill-rule="evenodd" clip-rule="evenodd" d="M144.449 58.894C143.118 57.9851 142.043 56.722 141.723 55.0697C140.802 50.3087 147.639 49.5783 149.548 51.5944C151.456 53.6106 152.907 59.6329 151.37 60.4964C150.758 60.8408 149.246 60.8046 147.591 60.3347L150.169 66.3729L144.882 67.7895L144.449 58.894Z" fill="#B28B67"/>
<path fill-rule="evenodd" clip-rule="evenodd" d="M145.667 57.722C146.605 60.25 147.301 63.2377 146.764 64.1352L140.376 65.8468C138.377 59.813 142.453 61.2648 140.907 55.4939C141.066 55.2288 141.213 54.9689 141.366 54.7379L141.314 54.5701C141.818 52.0292 142.921 50.5309 144.622 50.0753C147.172 49.3918 148.293 50.3525 149.246 51.1676C149.201 53.0483 147.28 53.8399 145.804 55.4002C145.551 55.2882 145.258 55.2589 144.969 55.3364C144.3 55.5157 143.901 56.1986 144.079 56.8618C144.257 57.525 144.943 57.9173 145.612 57.738C145.631 57.733 145.649 57.7277 145.667 57.722Z" fill="#191847"/>
<path fill-rule="evenodd" clip-rule="evenodd" d="M139.108 108.483C144.579 110.007 149.299 110.769 153.268 110.769C157.237 110.769 160.924 109.595 164.329 107.248C158.975 105.684 154.566 104.901 151.102 104.901C147.638 104.901 143.64 106.095 139.108 108.483Z" fill="#085A55"/>
<path fill-rule="evenodd" clip-rule="evenodd" d="M158.004 112.966C157.952 112.887 157.907 112.801 157.872 112.708C157.141 110.782 145.428 89.9997 144.261 86.2002H157.448C158.335 89.089 162.328 107.218 162.89 110.835C164.663 116.54 168.314 135.017 168.78 136.297C169.27 137.644 166.512 139.047 165.777 137.391C164.607 134.757 161.82 127.468 160.579 123.018C159.416 118.846 158.468 115.092 158.004 112.966Z" fill="#997659"/>
<path fill-rule="evenodd" clip-rule="evenodd" d="M147.215 115.503C141.86 116.851 122.273 119.289 120.929 119.671C119.546 120.064 118.334 117.225 120.043 116.61C122.762 115.632 130.256 113.371 134.799 112.448C138.454 111.706 141.788 111.1 144.027 110.746C143.837 104.481 142.97 89.4472 143.539 86.2002H155.207C154.662 89.3139 150.055 112.033 149.199 114.307C148.927 115.119 148.117 115.478 147.215 115.503Z" fill="#B28B67"/>
<path fill-rule="evenodd" clip-rule="evenodd" d="M120.15 115.834C119.435 115.701 118.911 115.664 118.578 115.723C118.173 115.794 117.593 115.966 116.84 116.238C116.923 116.707 117.668 120.93 119.074 128.905C120.22 129.042 120.774 128.748 120.736 128.024C120.697 127.299 120.672 126.696 120.659 126.215L122.246 119.865C122.276 119.742 122.202 119.619 122.08 119.588C122.078 119.588 122.076 119.587 122.073 119.587L121.089 119.37C120.667 118.768 120.419 118.261 120.347 117.851C120.288 117.517 120.342 117.033 120.507 116.398C120.571 116.154 120.425 115.905 120.181 115.841C120.171 115.838 120.16 115.836 120.15 115.834Z" fill="#E4E4E4"/>
<path fill-rule="evenodd" clip-rule="evenodd" d="M164.939 137.2C164.684 137.881 164.557 138.39 164.557 138.728C164.557 139.14 164.625 139.74 164.762 140.529C165.239 140.529 169.527 140.529 177.624 140.529C177.959 139.424 177.766 138.827 177.046 138.739C176.325 138.651 175.727 138.571 175.251 138.5L169.273 135.835C169.158 135.784 169.023 135.836 168.972 135.951C168.971 135.953 168.97 135.955 168.969 135.957L168.585 136.889C167.918 137.2 167.376 137.355 166.96 137.355C166.621 137.355 166.153 137.219 165.557 136.945C165.328 136.84 165.057 136.941 164.952 137.17C164.947 137.179 164.943 137.189 164.939 137.2Z" fill="#E4E4E4"/>
<path fill-rule="evenodd" clip-rule="evenodd" d="M143.576 86.2006C148.718 84.7352 153.583 84.7352 158.171 86.2006C159.767 93.4557 163.646 96.3353 164.328 107.459C156.575 111.296 146.997 104.722 139.015 108.464C136.735 103.229 139.927 90.6223 143.576 86.2006Z" fill="#106A63"/>
<path fill-rule="evenodd" clip-rule="evenodd" d="M155.741 71.1755L162.787 65.5526C163.813 63.7923 164.881 62.3774 165.99 61.3081C166.346 61.0806 167.001 60.8654 166.568 62.0866C166.135 63.3079 165.735 64.6118 166.116 64.8974C166.496 65.1831 167.211 64.5643 167.693 65.0654C168.015 65.3994 166.756 66.2386 163.916 67.583L159.162 73.7423L155.741 71.1755ZM168.582 72.6072L171.676 70.1317C171.836 68.2278 172.249 67.2113 172.915 67.082C173.386 66.7539 172.898 69.2102 173.835 68.8393C174.773 68.4683 176.838 66.2919 177.311 66.5766C178.009 66.9978 177.755 68.7142 177.261 69.6328C176.338 71.3497 175.445 72.0386 173.131 73.1425C171.922 73.7197 170.671 74.6696 169.38 75.9921L168.582 72.6072Z" fill="#997659"/>
<path fill-rule="evenodd" clip-rule="evenodd" d="M151.778 70.8991C154.503 70.3889 158.043 69.1731 161.495 66.0342L163.618 69.1508C161.405 72.2697 158.02 75.1083 154.709 75.5972C152.1 75.9825 150.222 73.0914 151.778 70.8991Z" fill="#0D3B39"/>
<path fill-rule="evenodd" clip-rule="evenodd" d="M156.412 75.6802C159.437 75.8884 164.149 74.183 170.546 70.564C172.852 73.7496 174.073 76.0955 174.207 77.6017C168.89 81.6761 164.112 83.9172 159.995 84.7355C160.557 87.1527 160.668 89.5273 160.039 91.8258C158.747 96.5512 145.963 94.6401 142.045 96.1509C138.055 88.3852 142.38 84.1806 141.458 78.9243C140.447 73.168 143.529 63.49 144.213 63.3695L150.444 62.2708C151.563 66.6057 154.148 71.1448 156.412 75.6802Z" fill="#085A55"/>
<path fill-rule="evenodd" clip-rule="evenodd" d="M235.411 59.5682C236.081 58.1593 236.365 56.5763 235.833 55.0308C234.298 50.5776 228.248 53.2688 227.633 55.8888C227.018 58.5087 228.721 64.28 230.419 64.2639C231.096 64.2574 232.338 63.4959 233.49 62.3002L234.262 68.6295L239.351 67.2657L235.411 59.5682Z" fill="#D4A181"/>
<path fill-rule="evenodd" clip-rule="evenodd" d="M233.564 59.7208C234.52 60.7632 235.637 61.4417 236.509 61.208C238.166 60.7641 238.75 58.2339 238.112 55.8528C238.09 55.7691 238.066 55.6865 238.04 55.6049C240.115 56.3378 242.1 58.3461 244.419 57.7248C247.573 56.8796 247.121 50.1817 242.714 51.3626C239.717 52.1656 238.36 52.9976 237.262 53.9843C236.823 53.3449 236.281 52.8534 235.703 52.5638C235.557 52.4674 235.352 52.3925 235.099 52.3398C234.944 52.3019 234.787 52.279 234.63 52.2722C233.788 52.1959 232.625 52.2947 231.374 52.5836C231.14 52.6375 230.912 52.6961 230.691 52.7585C230.375 51.5913 229.173 50.8994 228.004 51.2127C226.833 51.5265 226.138 52.7304 226.451 53.9017C226.755 55.0344 227.891 55.7218 229.025 55.4819C229.717 55.5079 230.578 55.4326 231.505 55.2496C231.506 55.6059 231.559 55.9967 231.673 56.4238C231.774 56.8009 231.923 57.1897 232.109 57.5752C232.243 57.2874 232.466 57.0633 232.735 56.9915C233.485 56.7904 234.172 57.2677 234.348 57.923C234.571 58.7546 234.252 59.4849 233.564 59.7208Z" fill="#191847"/>
<path fill-rule="evenodd" clip-rule="evenodd" d="M245.845 86.6748L237.802 114.389L234.019 135.197H230.223L234.013 86.6748H245.845Z" fill="#BA8B72"/>
<path fill-rule="evenodd" clip-rule="evenodd" d="M249.459 86.6748C248.898 101.072 249.119 108.925 249.245 110.233C249.37 111.541 250.084 120.301 254.942 135.636H250.993C244.559 120.925 242.312 112.165 241.574 110.233C240.836 108.301 238.657 100.448 235.474 86.6748H249.459Z" fill="#D4A181"/>
<path fill-rule="evenodd" clip-rule="evenodd" d="M246.017 86.6748C243.925 96.2113 240.306 111.434 235.162 132.343H229.609C229.198 110.882 230.943 96.757 233.965 86.6748H246.017Z" fill="#69A1AC"/>
<path fill-rule="evenodd" clip-rule="evenodd" d="M249.487 86.6748C248.937 101.072 250.361 115.256 254.773 132.567H248.848C242.402 118.075 237.781 103.961 234.624 86.6748H249.487Z" fill="#89C5CC"/>
<path fill-rule="evenodd" clip-rule="evenodd" d="M255.505 138.49L255.287 134.977C254.011 135.35 252.413 135.204 250.493 134.538C248.429 136 245.83 136.999 242.697 137.534C242.457 137.575 242.297 137.801 242.338 138.04C242.34 138.056 242.344 138.071 242.348 138.086L242.649 139.149H250.493H255.069L255.505 138.49Z" fill="#191847"/>
<path fill-rule="evenodd" clip-rule="evenodd" d="M234.866 138.49L234.648 134.977C233.373 135.35 231.775 135.204 229.855 134.538C227.79 136 225.191 136.999 222.058 137.534C221.819 137.575 221.658 137.801 221.699 138.04C221.702 138.056 221.705 138.071 221.709 138.086L222.011 139.149H229.855H234.43L234.866 138.49Z" fill="#191847"/>
<path fill-rule="evenodd" clip-rule="evenodd" d="M230.135 74.3317L221.905 71.5445C220.396 70.2825 218.964 69.3484 217.608 68.7419C217.21 68.6527 216.546 68.6733 217.341 69.6409C218.136 70.6086 218.928 71.6621 218.678 72.0475C218.428 72.4329 217.578 72.1061 217.307 72.7209C217.126 73.1308 218.542 73.4783 221.555 73.7635L227.888 77.795L230.135 74.3317ZM218.993 79.8723L215.377 78.6426C214.604 76.9641 213.895 76.176 213.249 76.2784C212.715 76.1356 213.967 78.2079 212.997 78.1802C212.026 78.1526 209.439 76.8551 209.106 77.2699C208.613 77.8835 209.41 79.3604 210.16 80.0327C211.561 81.2892 212.597 81.6208 215.054 81.8609C216.339 81.9864 217.784 82.4373 219.388 83.2137L218.993 79.8723Z" fill="#D4A181"/>
<path fill-rule="evenodd" clip-rule="evenodd" d="M233.628 72.7717C230.995 73.2074 227.391 73.2703 223.233 71.5556L222.341 75.0904C225.373 77.1959 229.371 78.6599 232.528 78.0115C235.015 77.5006 235.759 74.2517 233.628 72.7717Z" fill="#0D3B39"/>
<path fill-rule="evenodd" clip-rule="evenodd" d="M231.015 78.6491C228.347 79.8371 223.522 79.8416 216.541 78.6623C215.506 82.3205 215.177 84.8566 215.553 86.2704C221.707 88.2204 226.768 88.6811 230.763 88.0661C231.053 90.4495 231.736 92.6455 233.064 94.5281C235.793 98.3984 246.725 92.4407 250.769 92.521C251.814 84.1424 246.513 81.747 245.613 76.6626C244.627 71.0947 238.644 63.3116 237.986 63.4276L231.987 64.4855C232.406 68.7967 231.566 73.7775 231.015 78.6491Z" fill="#085A55"/>
<path fill-rule="evenodd" clip-rule="evenodd" d="M328.396 57.3255C329.408 56.1379 330.092 54.6826 329.978 53.0519C329.648 48.3532 323.108 49.3869 321.835 51.7583C320.563 54.1298 320.714 60.1452 322.359 60.5691C323.014 60.7381 324.411 60.324 325.833 59.4671L324.941 65.7806H330.21L328.396 57.3255Z" fill="#B28B67"/>
<path fill-rule="evenodd" clip-rule="evenodd" d="M324.159 52.1027C324.874 52.5027 325.383 53.2522 325.996 54.2353C326.145 54.1767 326.308 54.1445 326.478 54.1445C327.205 54.1445 327.795 54.7343 327.795 55.4618C327.795 55.8312 327.643 56.165 327.398 56.4042C327.703 56.8345 328.044 57.2839 328.436 57.7477C329.897 56.8713 330.983 54.3169 329.588 51.8511C328.388 46.9117 321.588 49.9775 320.28 49.1445C319.994 50.9369 320.916 52.3821 324.159 52.1027Z" fill="#191847"/>
<path fill-rule="evenodd" clip-rule="evenodd" d="M330.422 84.8418L319.646 112.117L312.418 135.175H309.564L320.613 84.8418L330.422 84.8418Z" fill="#997659"/>
<path fill-rule="evenodd" clip-rule="evenodd" d="M332.592 84.8418C332.707 94.4264 334.38 107.33 334.647 107.928C334.826 108.326 340.979 113.391 353.107 123.123L351.142 125.227C336.831 116.883 329.345 112.155 328.683 111.042C327.689 109.372 324.456 94.0112 321.859 84.8418H332.592Z" fill="#B28B67"/>
<path fill-rule="evenodd" clip-rule="evenodd" d="M353.37 122.421C354.03 122.654 354.485 122.876 354.734 123.085C355.038 123.339 355.438 123.761 355.935 124.351C355.64 124.702 352.986 127.865 347.975 133.837C346.953 133.4 346.633 132.888 347.013 132.302C347.394 131.717 347.706 131.226 347.948 130.831L349.682 124.773C349.715 124.656 349.837 124.589 349.954 124.622C349.956 124.623 349.957 124.623 349.959 124.624L350.885 124.917C351.527 124.618 351.977 124.315 352.235 124.007C352.444 123.758 352.633 123.328 352.8 122.719C352.865 122.485 353.106 122.347 353.34 122.412C353.35 122.415 353.36 122.418 353.37 122.421Z" fill="#E4E4E4"/>
<path fill-rule="evenodd" clip-rule="evenodd" d="M313.587 134.111C313.832 134.767 313.955 135.257 313.955 135.583C313.955 135.979 313.889 136.557 313.757 137.316C313.298 137.316 309.17 137.316 301.374 137.316C301.052 136.252 301.238 135.678 301.931 135.593C302.624 135.508 303.2 135.432 303.659 135.363L309.415 132.797C309.525 132.748 309.655 132.798 309.705 132.909C309.705 132.91 309.706 132.912 309.707 132.914L310.077 133.812C310.719 134.111 311.24 134.261 311.642 134.261C311.968 134.261 312.418 134.129 312.992 133.866C313.213 133.765 313.474 133.862 313.575 134.082C313.579 134.092 313.583 134.101 313.587 134.111Z" fill="#E4E4E4"/>
<path fill-rule="evenodd" clip-rule="evenodd" d="M323.177 132.8L309.607 131.328L319.664 84.8418H331.817L323.177 132.8Z" fill="#69A1AC"/>
<path fill-rule="evenodd" clip-rule="evenodd" d="M350.301 119.73L341.4 130.265C332.025 120.026 326.559 113.345 325.003 110.222C323.447 107.099 322.048 98.6388 320.806 84.8418H334.489C335.167 96.9798 335.624 103.331 335.86 103.896C336.097 104.461 340.91 109.739 350.301 119.73Z" fill="#89C5CC"/>
<path fill-rule="evenodd" clip-rule="evenodd" d="M310.613 82.1876L304.16 88.4417C302.283 89.2374 300.744 90.116 299.545 91.0775C299.275 91.4007 298.982 92.0199 300.251 91.7428C301.519 91.4657 302.867 91.2309 303.105 91.6409C303.344 92.0508 302.641 92.6791 303.082 93.2156C303.375 93.5733 304.363 92.4355 306.046 89.8024L312.756 85.8719L310.613 82.1876ZM342.165 76.5273L337.178 76.5459C340.976 88.7745 342.993 95.1771 343.227 95.7539C343.754 97.0517 342.639 99.0283 342.162 100.09C343.716 100.781 343.55 98.2233 345.51 99.1291C347.298 99.9559 348.659 101.454 350.726 100.187C350.98 100.031 351.258 99.4449 350.585 98.9866C348.909 97.8448 346.494 95.8465 346.168 95.1888C345.723 94.2918 344.389 88.0713 342.165 76.5273Z" fill="#B28B67"/>
<path fill-rule="evenodd" clip-rule="evenodd" d="M326.967 62.469L324.997 62.1333C321.895 73.0307 305.953 80.4588 304.974 84.5325C304.615 86.0264 305.697 86.7816 305.138 87.2366L307.698 89.0987C308.132 88.5961 309.057 89.5154 310.989 88.8724C312.921 88.2293 326.967 75.3724 326.967 62.469Z" fill="#CDD422"/>
<path fill-rule="evenodd" clip-rule="evenodd" d="M323.654 63.9096C323.884 78.3438 315.486 82.0243 317.356 87.8131C318.901 92.5924 333.679 97.7302 336.237 93.0453C337.272 91.1489 337.741 88.8554 337.795 86.3618C338.448 88.2775 338.965 89.9267 339.346 91.3094C340.001 93.6948 342.545 94.0739 342.545 94.9928L345.895 94.0739C345.668 92.8255 347.247 92.2177 346.824 89.4286C344.926 76.9322 339.828 67.8739 331.528 62.2538L331.44 61.007C331.406 60.5235 330.987 60.159 330.503 60.1926L330.503 60.1918L324.302 60.6218C323.818 60.6554 323.453 61.0749 323.487 61.5588L323.487 61.5596L323.654 63.9096Z" fill="#D6DE21"/>
<path fill-rule="evenodd" clip-rule="evenodd" d="M401.672 139.047L401.444 134.258H396.655C394.384 135.854 391.419 137.146 387.761 138.135V139.047H396.427L399.391 138.591V139.047H401.672Z" fill="#191847"/>
<path fill-rule="evenodd" clip-rule="evenodd" d="M400.304 75.4911L391.3 74.2629C389.499 73.2611 387.842 72.5828 386.329 72.2282C385.904 72.2158 385.226 72.3705 386.235 73.2116C387.244 74.0527 388.268 74.9831 388.088 75.4319C387.908 75.8808 386.97 75.7138 386.815 76.4042C386.711 76.8645 388.234 76.9392 391.383 76.6286L398.689 79.525L400.304 75.4911ZM428.589 77.5752L423.595 77.5939C429.071 89.9162 431.926 96.3679 432.161 96.9491C432.688 98.2569 431.572 100.249 431.094 101.319C432.649 102.015 432.484 99.4374 434.446 100.35C436.236 101.183 437.599 102.693 439.668 101.416C439.922 101.259 440.201 100.668 439.527 100.207C437.849 99.056 435.431 97.0424 435.105 96.3796C434.659 95.4758 432.487 89.2076 428.589 77.5752Z" fill="#997659"/>
<path fill-rule="evenodd" clip-rule="evenodd" d="M414.91 61.7372L411.001 61.9977C410.038 70.7094 404.793 76.212 393.049 74.3492L391.489 85.5679C402.465 86.9863 412.091 82.5921 414.064 70.6946C414.574 67.6147 414.978 64.4094 414.91 61.7372Z" fill="#AFB9C5"/>
<defs>
<clipPath id="clip0_1285_5511">
<rect width="80" height="101.053" fill="white" transform="translate(23 40)"/>
</clipPath>
</defs>
</svg>
