<svg width="40" height="40" viewBox="0 0 40 40" fill="none" xmlns="http://www.w3.org/2000/svg">
<path d="M27 20C27 25.4788 26.1664 30.4166 24.8351 33.9666C24.1688 35.7434 23.3875 37.1466 22.5452 38.0966C21.7024 39.0472 20.8412 39.5 20 39.5C19.1588 39.5 18.2976 39.0472 17.4548 38.0966C16.6125 37.1466 15.8312 35.7434 15.1649 33.9666C13.8336 30.4166 13 25.4788 13 20C13 14.5212 13.8336 9.58342 15.1649 6.03343C15.8312 4.25658 16.6125 2.8534 17.4548 1.9034C18.2976 0.952827 19.1588 0.5 20 0.5C20.8412 0.5 21.7024 0.952827 22.5452 1.9034C23.3875 2.8534 24.1688 4.25658 24.8351 6.03343C26.1664 9.58342 27 14.5212 27 20Z" stroke="url(#paint0_linear_2342_49570)"/>
<path d="M20 13C25.4788 13 30.4166 13.8336 33.9666 15.1649C35.7434 15.8312 37.1466 16.6125 38.0966 17.4548C39.0472 18.2976 39.5 19.1588 39.5 20C39.5 20.8412 39.0472 21.7024 38.0966 22.5452C37.1466 23.3875 35.7434 24.1688 33.9666 24.8351C30.4166 26.1664 25.4788 27 20 27C14.5212 27 9.58342 26.1664 6.03343 24.8351C4.25658 24.1688 2.8534 23.3875 1.9034 22.5452C0.952827 21.7024 0.5 20.8412 0.5 20C0.5 19.1588 0.952827 18.2976 1.9034 17.4548C2.8534 16.6125 4.25658 15.8312 6.03343 15.1649C9.58342 13.8336 14.5212 13 20 13Z" stroke="url(#paint1_linear_2342_49570)"/>
<path d="M24.9493 15.0502C28.8233 18.9243 31.7254 23.0053 33.2943 26.4569C34.0796 28.1845 34.5193 29.7292 34.5955 30.9965C34.6717 32.2646 34.3829 33.1938 33.7881 33.7886C33.1933 34.3834 32.2641 34.6722 30.996 34.5959C29.7287 34.5198 28.184 34.0801 26.4564 33.2948C23.0048 31.7259 18.9238 28.8238 15.0498 24.9497C11.1757 21.0757 8.27358 16.9946 6.70469 13.5431C5.91943 11.8155 5.47972 10.2708 5.40354 9.0035C5.32732 7.7354 5.61611 6.80622 6.21092 6.21141C6.80573 5.61659 7.73492 5.32781 9.00301 5.40403C10.2703 5.48021 11.815 5.91991 13.5426 6.70517C16.9942 8.27406 21.0752 11.1762 24.9493 15.0502Z" stroke="url(#paint2_linear_2342_49570)"/>
<path d="M6.21092 33.7886C5.61611 33.1938 5.32732 32.2646 5.40354 30.9965C5.47972 29.7292 5.91943 28.1845 6.70469 26.4569C8.27358 23.0054 11.1757 18.9243 15.0498 15.0503C18.9238 11.1762 23.0048 8.27409 26.4564 6.7052C28.184 5.91994 29.7287 5.48024 30.996 5.40406C32.2641 5.32784 33.1933 5.61663 33.7881 6.21144C34.3829 6.80625 34.6717 7.73544 34.5955 9.00353C34.5193 10.2708 34.0796 11.8155 33.2943 13.5431C31.7254 16.9947 28.8233 21.0757 24.9492 24.9498C21.0752 28.8238 16.9942 31.7259 13.5426 33.2948C11.815 34.0801 10.2703 34.5198 9.00301 34.596C7.73492 34.6722 6.80573 34.3834 6.21092 33.7886Z" stroke="url(#paint3_linear_2342_49570)"/>
<defs>
<linearGradient id="paint0_linear_2342_49570" x1="20" y1="0" x2="20" y2="40" gradientUnits="userSpaceOnUse">
<stop/>
<stop offset="0.965" stop-opacity="0.35"/>
<stop offset="1" stop-color="white" stop-opacity="0"/>
</linearGradient>
<linearGradient id="paint1_linear_2342_49570" x1="0" y1="20" x2="40" y2="20" gradientUnits="userSpaceOnUse">
<stop/>
<stop offset="1" stop-opacity="0.35"/>
</linearGradient>
<linearGradient id="paint2_linear_2342_49570" x1="5.85736" y1="5.85786" x2="34.1416" y2="34.1421" gradientUnits="userSpaceOnUse">
<stop/>
<stop offset="0.97" stop-opacity="0.35"/>
<stop offset="1" stop-opacity="0"/>
</linearGradient>
<linearGradient id="paint3_linear_2342_49570" x1="34.1417" y1="5.85789" x2="5.85741" y2="34.1422" gradientUnits="userSpaceOnUse">
<stop/>
<stop offset="1" stop-opacity="0.35"/>
</linearGradient>
</defs>
</svg>
