<svg width="70" height="56" viewBox="0 0 70 56" fill="none" xmlns="http://www.w3.org/2000/svg">
<path fill-rule="evenodd" clip-rule="evenodd" d="M25.1009 9.16107L38.5215 16.5115L33.5655 21.8308L23.8138 12.9021C18.6766 11.4863 16.3274 10.4506 16.7659 9.79501C17.1357 9.24221 17.7322 9.26141 18.2815 9.27909C18.7095 9.29286 19.1089 9.30572 19.3504 9.04654C19.9019 8.45465 18.8497 6.38513 17.7673 4.4639C16.6848 2.54268 17.8423 2.70993 18.5042 2.98625C20.6702 4.45257 22.8691 6.51084 25.1009 9.16107ZM11.6072 19.4744L17.5023 22.7128L17.1666 28.6288C17.1666 28.6288 13.3485 25.873 10.0637 24.9572C5.87543 23.7894 4.1809 22.8976 2.13426 20.2898C1.03922 18.8945 0.109825 16.0896 1.15214 15.1761C1.55196 14.8257 3.04172 15.6536 4.56177 16.4982C5.72023 17.142 6.89628 17.7955 7.62084 17.9446C8.59622 18.1454 8.48203 16.8812 8.39078 15.8709C8.3253 15.146 8.27163 14.5518 8.64084 14.7236C10.3664 14.7532 11.6072 19.4744 11.6072 19.4744Z" fill="#997659"/>
<path fill-rule="evenodd" clip-rule="evenodd" d="M45.0577 14.8738C40.357 14.8242 34.0885 13.8313 27.4 9.58572L24.7732 15.4435C29.3868 20.0221 35.8739 23.7839 41.5461 23.6246C46.0162 23.4991 48.3007 18.0922 45.0577 14.8738Z" fill="#2026A2"/>
<path fill-rule="evenodd" clip-rule="evenodd" d="M57.7351 55.0055C62.204 54.4229 66.3104 53.8875 68.7438 54.3665C71.4741 45.4995 69.207 39.9166 67.114 34.7628C65.8526 31.6566 64.6545 28.7062 64.652 25.2867C64.6445 15.3287 56.6487 0.000976562 55.4723 0.000976562H55.1346H45.8113H44.7439C44.2643 6.16319 42.2172 12.8351 40.1569 19.5499C39.6757 21.1181 39.1939 22.6885 38.7311 24.2554C30.9343 26.0252 13.6214 19.8646 13.6214 19.8646C13.6214 19.8646 9.25088 28.9065 9.58064 32.757C19.6577 38.0209 28.2947 40.3678 35.4104 40.5227C35.1842 44.7449 35.6982 48.7624 37.4246 52.4333C39.7377 57.3519 49.3714 56.0959 57.7351 55.0055Z" fill="#1F28CF"/>
</svg>
