<svg width="24" height="22" viewBox="0 0 24 22" fill="none" xmlns="http://www.w3.org/2000/svg">
<path fill-rule="evenodd" clip-rule="evenodd" d="M1.47677 9.52832C2.2905 9.52832 2.95354 10.1914 2.95354 11.0051C2.95354 11.8188 2.2905 12.4819 1.47677 12.4819C0.663039 12.4819 0 11.8188 0 11.0051C0 10.1914 0.663039 9.52832 1.47677 9.52832Z" fill="#212121"/>
<path fill-rule="evenodd" clip-rule="evenodd" d="M22.5238 9.52832C23.3375 9.52832 24.0005 10.1914 24.0005 11.0051C24.0005 11.8188 23.3375 12.4819 22.5238 12.4819C21.71 12.4819 21.047 11.8188 21.047 11.0051C21.0369 10.1914 21.7 9.52832 22.5238 9.52832Z" fill="#212121"/>
<path fill-rule="evenodd" clip-rule="evenodd" d="M17.9531 0.476562C16.0142 0.476562 14.447 2.04375 14.447 3.98263C14.447 4.94705 14.8388 5.82106 15.4717 6.464C16.2653 7.25764 16.6571 8.22206 16.6571 9.33717V12.572C16.6571 13.4159 15.6525 13.8378 15.0498 13.2752L8.62029 6.84576C7.81661 6.06216 7.42481 5.09774 7.41476 3.98263C7.41476 2.04375 5.84758 0.476562 3.90869 0.476562C1.96981 0.476562 0.392578 2.04375 0.392578 3.98263C0.392578 5.92152 1.95976 7.4887 3.89865 7.4887C5.01376 7.4887 5.97818 7.89054 6.77182 8.68418L7.93716 9.84952C8.57006 10.4824 8.57006 11.5172 7.93716 12.1501L6.77182 13.3154C5.97818 14.109 5.02381 14.5008 3.89865 14.5109C1.95976 14.5109 0.392578 16.0881 0.392578 18.017C0.392578 19.9558 1.95976 21.523 3.89865 21.523C5.83753 21.523 7.40472 19.9558 7.40472 18.017C7.40472 16.9018 7.80656 15.9374 8.6002 15.1438L9.76554 13.9784C10.3984 13.3455 11.4332 13.3455 12.0661 13.9784L13.2314 15.1438C14.0251 15.9374 14.4169 16.8918 14.4269 18.017C14.4269 19.9558 16.0041 21.523 17.933 21.523C19.8719 21.523 21.439 19.9558 21.439 18.017C21.439 17.0525 21.0472 16.1785 20.4143 15.5356C19.6308 14.7419 19.2289 13.7775 19.2289 12.6624V9.33717C19.2289 8.22206 19.6308 7.25764 20.4143 6.464C21.0472 5.8311 21.439 4.9571 21.439 3.98263C21.4591 2.04375 19.892 0.476562 17.9531 0.476562Z" fill="#212121"/>
</svg>
